<?xml version="1.0" encoding="UTF-8" standalone="no"?>
<!DOCTYPE svg PUBLIC "-//W3C//DTD SVG 1.1//EN"
 "http://www.w3.org/Graphics/SVG/1.1/DTD/svg11.dtd">
<!-- Generated by graphviz version 2.43.0 (0)
 -->
<!-- Title: snakemake_dag Pages: 1 -->
<svg width="2353pt" height="836pt"
 viewBox="0.00 0.00 2353.23 836.00" xmlns="http://www.w3.org/2000/svg" xmlns:xlink="http://www.w3.org/1999/xlink">
<g id="graph0" class="graph" transform="scale(1 1) rotate(0) translate(4 832)">
<title>snakemake_dag</title>
<polygon fill="white" stroke="transparent" points="-4,4 -4,-832 2349.23,-832 2349.23,4 -4,4"/>
<!-- 0 -->
<g id="node1" class="node">
<title>0</title>
<polygon fill="none" stroke="#000000" stroke-width="2" stroke-dasharray="1,5" points="962.23,-828 876.23,-828 876.23,-792 962.23,-792 962.23,-828"/>
<text text-anchor="middle" x="919.23" y="-807.5" font-family="sans" font-size="10.00">raw fastq&#45;files</text>
</g>
<!-- 8 -->
<g id="node8" class="node">
<title>8</title>
<path fill="none" stroke="#d8a456" stroke-width="2" d="M971.73,-756C971.73,-756 866.73,-756 866.73,-756 860.73,-756 854.73,-750 854.73,-744 854.73,-744 854.73,-732 854.73,-732 854.73,-726 860.73,-720 866.73,-720 866.73,-720 971.73,-720 971.73,-720 977.73,-720 983.73,-726 983.73,-732 983.73,-732 983.73,-744 983.73,-744 983.73,-750 977.73,-756 971.73,-756"/>
<text text-anchor="middle" x="919.23" y="-735.5" font-family="sans" font-size="10.00">prealignment_fastp_pe</text>
</g>
<!-- 0&#45;&gt;8 -->
<g id="edge1" class="edge">
<title>0&#45;&gt;8</title>
<path fill="none" stroke="grey" stroke-width="2" d="M919.23,-791.7C919.23,-783.98 919.23,-774.71 919.23,-766.11"/>
<polygon fill="grey" stroke="grey" stroke-width="2" points="922.73,-766.1 919.23,-756.1 915.73,-766.1 922.73,-766.1"/>
</g>
<!-- 88 -->
<g id="node48" class="node">
<title>88</title>
<path fill="none" stroke="#d6d856" stroke-width="2" d="M413.73,-684C413.73,-684 374.73,-684 374.73,-684 368.73,-684 362.73,-678 362.73,-672 362.73,-672 362.73,-660 362.73,-660 362.73,-654 368.73,-648 374.73,-648 374.73,-648 413.73,-648 413.73,-648 419.73,-648 425.73,-654 425.73,-660 425.73,-660 425.73,-672 425.73,-672 425.73,-678 419.73,-684 413.73,-684"/>
<text text-anchor="middle" x="394.23" y="-663.5" font-family="sans" font-size="10.00">qc_fastqc</text>
</g>
<!-- 0&#45;&gt;88 -->
<g id="edge2" class="edge">
<title>0&#45;&gt;88</title>
<path fill="none" stroke="grey" stroke-width="2" d="M875.82,-797.26C776.4,-770.37 533.28,-704.61 435.73,-678.23"/>
<polygon fill="grey" stroke="grey" stroke-width="2" points="436.5,-674.81 425.93,-675.58 434.67,-681.57 436.5,-674.81"/>
</g>
<!-- 103 -->
<g id="node52" class="node">
<title>103</title>
<path fill="none" stroke="#d87d56" stroke-width="2" d="M1104.23,-756C1104.23,-756 1014.23,-756 1014.23,-756 1008.23,-756 1002.23,-750 1002.23,-744 1002.23,-744 1002.23,-732 1002.23,-732 1002.23,-726 1008.23,-720 1014.23,-720 1014.23,-720 1104.23,-720 1104.23,-720 1110.23,-720 1116.23,-726 1116.23,-732 1116.23,-732 1116.23,-744 1116.23,-744 1116.23,-750 1110.23,-756 1104.23,-756"/>
<text text-anchor="middle" x="1059.23" y="-735.5" font-family="sans" font-size="10.00">compression_spring</text>
</g>
<!-- 0&#45;&gt;103 -->
<g id="edge3" class="edge">
<title>0&#45;&gt;103</title>
<path fill="none" stroke="grey" stroke-width="2" d="M953.47,-791.88C972.29,-782.47 995.81,-770.71 1015.89,-760.67"/>
<polygon fill="grey" stroke="grey" stroke-width="2" points="1017.47,-763.79 1024.85,-756.19 1014.34,-757.53 1017.47,-763.79"/>
</g>
<!-- 1 -->
<g id="node2" class="node">
<title>1</title>
<polygon fill="none" stroke="#000000" stroke-width="2" stroke-dasharray="1,5" points="1237.23,-324 1129.23,-324 1129.23,-288 1237.23,-288 1237.23,-324"/>
<text text-anchor="middle" x="1183.23" y="-303.5" font-family="sans" font-size="10.00">snv_panel.tsv T(N)</text>
</g>
<!-- 2 -->
<g id="node3" class="node">
<title>2</title>
<path fill="none" stroke="#5663d8" stroke-width="2" d="M1226.73,-396C1226.73,-396 1137.73,-396 1137.73,-396 1131.73,-396 1125.73,-390 1125.73,-384 1125.73,-384 1125.73,-372 1125.73,-372 1125.73,-366 1131.73,-360 1137.73,-360 1137.73,-360 1226.73,-360 1226.73,-360 1232.73,-360 1238.73,-366 1238.73,-372 1238.73,-372 1238.73,-384 1238.73,-384 1238.73,-390 1232.73,-396 1226.73,-396"/>
<text text-anchor="middle" x="1182.23" y="-375.5" font-family="sans" font-size="10.00">mutectcaller_to_tsv</text>
</g>
<!-- 2&#45;&gt;1 -->
<g id="edge4" class="edge">
<title>2&#45;&gt;1</title>
<path fill="none" stroke="grey" stroke-width="2" d="M1182.47,-359.7C1182.58,-351.98 1182.72,-342.71 1182.84,-334.11"/>
<polygon fill="grey" stroke="grey" stroke-width="2" points="1186.34,-334.15 1182.98,-324.1 1179.34,-334.05 1186.34,-334.15"/>
</g>
<!-- 3 -->
<g id="node4" class="node">
<title>3</title>
<path fill="none" stroke="#c6d856" stroke-width="2" d="M1257.23,-468C1257.23,-468 1057.23,-468 1057.23,-468 1051.23,-468 1045.23,-462 1045.23,-456 1045.23,-456 1045.23,-444 1045.23,-444 1045.23,-438 1051.23,-432 1057.23,-432 1057.23,-432 1257.23,-432 1257.23,-432 1263.23,-432 1269.23,-438 1269.23,-444 1269.23,-444 1269.23,-456 1269.23,-456 1269.23,-462 1263.23,-468 1257.23,-468"/>
<text text-anchor="middle" x="1157.23" y="-447.5" font-family="sans" font-size="10.00">filtering_bcftools_filter_include_region_snv</text>
</g>
<!-- 3&#45;&gt;2 -->
<g id="edge5" class="edge">
<title>3&#45;&gt;2</title>
<path fill="none" stroke="grey" stroke-width="2" d="M1163.41,-431.7C1166.22,-423.81 1169.62,-414.3 1172.74,-405.55"/>
<polygon fill="grey" stroke="grey" stroke-width="2" points="1176.05,-406.7 1176.12,-396.1 1169.46,-404.34 1176.05,-406.7"/>
</g>
<!-- 58 -->
<g id="node33" class="node">
<title>58</title>
<polygon fill="none" stroke="#000000" stroke-width="2" stroke-dasharray="1,5" points="1365.23,-396 1257.23,-396 1257.23,-360 1365.23,-360 1365.23,-396"/>
<text text-anchor="middle" x="1311.23" y="-375.5" font-family="sans" font-size="10.00">snv_panel.vcf T(N)</text>
</g>
<!-- 3&#45;&gt;58 -->
<g id="edge45" class="edge">
<title>3&#45;&gt;58</title>
<path fill="none" stroke="grey" stroke-width="2" d="M1194.9,-431.88C1215.86,-422.35 1242.13,-410.41 1264.4,-400.28"/>
<polygon fill="grey" stroke="grey" stroke-width="2" points="1266.02,-403.39 1273.68,-396.07 1263.12,-397.02 1266.02,-403.39"/>
</g>
<!-- 66 -->
<g id="node37" class="node">
<title>66</title>
<path fill="none" stroke="#56c1d8" stroke-width="2" d="M1095.73,-396C1095.73,-396 1030.73,-396 1030.73,-396 1024.73,-396 1018.73,-390 1018.73,-384 1018.73,-384 1018.73,-372 1018.73,-372 1018.73,-366 1024.73,-360 1030.73,-360 1030.73,-360 1095.73,-360 1095.73,-360 1101.73,-360 1107.73,-366 1107.73,-372 1107.73,-372 1107.73,-384 1107.73,-384 1107.73,-390 1101.73,-396 1095.73,-396"/>
<text text-anchor="middle" x="1063.23" y="-375.5" font-family="sans" font-size="10.00">export_to_xlsx</text>
</g>
<!-- 3&#45;&gt;66 -->
<g id="edge11" class="edge">
<title>3&#45;&gt;66</title>
<path fill="none" stroke="grey" stroke-width="2" d="M1133.99,-431.7C1122.04,-422.8 1107.3,-411.82 1094.38,-402.2"/>
<polygon fill="grey" stroke="grey" stroke-width="2" points="1096.3,-399.27 1086.19,-396.1 1092.12,-404.88 1096.3,-399.27"/>
</g>
<!-- 5 -->
<g id="node5" class="node">
<title>5</title>
<path fill="none" stroke="#d85656" stroke-width="2" d="M1489.23,-540C1489.23,-540 1421.23,-540 1421.23,-540 1415.23,-540 1409.23,-534 1409.23,-528 1409.23,-528 1409.23,-516 1409.23,-516 1409.23,-510 1415.23,-504 1421.23,-504 1421.23,-504 1489.23,-504 1489.23,-504 1495.23,-504 1501.23,-510 1501.23,-516 1501.23,-516 1501.23,-528 1501.23,-528 1501.23,-534 1495.23,-540 1489.23,-540"/>
<text text-anchor="middle" x="1455.23" y="-519.5" font-family="sans" font-size="10.00">annotation_vep</text>
</g>
<!-- 5&#45;&gt;3 -->
<g id="edge6" class="edge">
<title>5&#45;&gt;3</title>
<path fill="none" stroke="grey" stroke-width="2" d="M1409.09,-506.43C1406.1,-505.58 1403.12,-504.76 1400.23,-504 1352.38,-491.41 1298.68,-479.47 1253.95,-470.13"/>
<polygon fill="grey" stroke="grey" stroke-width="2" points="1254.47,-466.66 1243.97,-468.05 1253.05,-473.51 1254.47,-466.66"/>
</g>
<!-- 23 -->
<g id="node18" class="node">
<title>23</title>
<path fill="none" stroke="#5692d8" stroke-width="2" d="M1935.73,-468C1935.73,-468 1808.73,-468 1808.73,-468 1802.73,-468 1796.73,-462 1796.73,-456 1796.73,-456 1796.73,-444 1796.73,-444 1796.73,-438 1802.73,-432 1808.73,-432 1808.73,-432 1935.73,-432 1935.73,-432 1941.73,-432 1947.73,-438 1947.73,-444 1947.73,-444 1947.73,-456 1947.73,-456 1947.73,-462 1941.73,-468 1935.73,-468"/>
<text text-anchor="middle" x="1872.23" y="-447.5" font-family="sans" font-size="10.00">filtering_filter_vcf_germline</text>
</g>
<!-- 5&#45;&gt;23 -->
<g id="edge10" class="edge">
<title>5&#45;&gt;23</title>
<path fill="none" stroke="grey" stroke-width="2" d="M1501.52,-506.3C1504.79,-505.46 1508.05,-504.68 1511.23,-504 1628.97,-478.63 1663.37,-487.63 1786.1,-468.11"/>
<polygon fill="grey" stroke="grey" stroke-width="2" points="1786.96,-471.51 1796.27,-466.46 1785.84,-464.6 1786.96,-471.51"/>
</g>
<!-- 108 -->
<g id="node53" class="node">
<title>108</title>
<polygon fill="none" stroke="#000000" stroke-width="2" stroke-dasharray="1,5" points="1589.73,-468 1514.73,-468 1514.73,-432 1589.73,-432 1589.73,-468"/>
<text text-anchor="middle" x="1552.23" y="-447.5" font-family="sans" font-size="10.00">snv.vcf T(N)</text>
</g>
<!-- 5&#45;&gt;108 -->
<g id="edge70" class="edge">
<title>5&#45;&gt;108</title>
<path fill="none" stroke="grey" stroke-width="2" d="M1479.2,-503.7C1491.54,-494.8 1506.74,-483.82 1520.08,-474.2"/>
<polygon fill="grey" stroke="grey" stroke-width="2" points="1522.46,-476.79 1528.52,-468.1 1518.37,-471.12 1522.46,-476.79"/>
</g>
<!-- 6 -->
<g id="node6" class="node">
<title>6</title>
<path fill="none" stroke="#56d85b" stroke-width="2" d="M1585.73,-612C1585.73,-612 1442.73,-612 1442.73,-612 1436.73,-612 1430.73,-606 1430.73,-600 1430.73,-600 1430.73,-588 1430.73,-588 1430.73,-582 1436.73,-576 1442.73,-576 1442.73,-576 1585.73,-576 1585.73,-576 1591.73,-576 1597.73,-582 1597.73,-588 1597.73,-588 1597.73,-600 1597.73,-600 1597.73,-606 1591.73,-612 1585.73,-612"/>
<text text-anchor="middle" x="1514.23" y="-591.5" font-family="sans" font-size="10.00">parabricks_pbrun_mutectcaller</text>
</g>
<!-- 6&#45;&gt;5 -->
<g id="edge7" class="edge">
<title>6&#45;&gt;5</title>
<path fill="none" stroke="grey" stroke-width="2" d="M1499.64,-575.7C1492.57,-567.3 1483.94,-557.07 1476.18,-547.86"/>
<polygon fill="grey" stroke="grey" stroke-width="2" points="1478.76,-545.49 1469.64,-540.1 1473.41,-550.01 1478.76,-545.49"/>
</g>
<!-- 17 -->
<g id="node14" class="node">
<title>17</title>
<path fill="none" stroke="#d8c356" stroke-width="2" d="M1378.73,-540C1378.73,-540 1339.73,-540 1339.73,-540 1333.73,-540 1327.73,-534 1327.73,-528 1327.73,-528 1327.73,-516 1327.73,-516 1327.73,-510 1333.73,-504 1339.73,-504 1339.73,-504 1378.73,-504 1378.73,-504 1384.73,-504 1390.73,-510 1390.73,-516 1390.73,-516 1390.73,-528 1390.73,-528 1390.73,-534 1384.73,-540 1378.73,-540"/>
<text text-anchor="middle" x="1359.23" y="-519.5" font-family="sans" font-size="10.00">qc_peddy</text>
</g>
<!-- 6&#45;&gt;17 -->
<g id="edge19" class="edge">
<title>6&#45;&gt;17</title>
<path fill="none" stroke="grey" stroke-width="2" d="M1476.31,-575.88C1453.23,-565.45 1423.75,-552.14 1400.14,-541.48"/>
<polygon fill="grey" stroke="grey" stroke-width="2" points="1401.3,-538.16 1390.75,-537.24 1398.42,-544.54 1401.3,-538.16"/>
</g>
<!-- 7 -->
<g id="node7" class="node">
<title>7</title>
<path fill="none" stroke="#56a9d8" stroke-width="2" d="M981.73,-684C981.73,-684 862.73,-684 862.73,-684 856.73,-684 850.73,-678 850.73,-672 850.73,-672 850.73,-660 850.73,-660 850.73,-654 856.73,-648 862.73,-648 862.73,-648 981.73,-648 981.73,-648 987.73,-648 993.73,-654 993.73,-660 993.73,-660 993.73,-672 993.73,-672 993.73,-678 987.73,-684 981.73,-684"/>
<text text-anchor="middle" x="922.23" y="-663.5" font-family="sans" font-size="10.00">parabricks_pbrun_fq2bam</text>
</g>
<!-- 7&#45;&gt;6 -->
<g id="edge12" class="edge">
<title>7&#45;&gt;6</title>
<path fill="none" stroke="grey" stroke-width="2" d="M994.12,-649.75C997.87,-649.12 1001.59,-648.53 1005.23,-648 1185.65,-621.81 1235.55,-636.19 1420.57,-612"/>
<polygon fill="grey" stroke="grey" stroke-width="2" points="1421.18,-615.45 1430.63,-610.67 1420.26,-608.51 1421.18,-615.45"/>
</g>
<!-- 14 -->
<g id="node11" class="node">
<title>14</title>
<path fill="none" stroke="#56d8c9" stroke-width="2" d="M2072.23,-468C2072.23,-468 1978.23,-468 1978.23,-468 1972.23,-468 1966.23,-462 1966.23,-456 1966.23,-456 1966.23,-444 1966.23,-444 1966.23,-438 1972.23,-432 1978.23,-432 1978.23,-432 2072.23,-432 2072.23,-432 2078.23,-432 2084.23,-438 2084.23,-444 2084.23,-444 2084.23,-456 2084.23,-456 2084.23,-462 2078.23,-468 2072.23,-468"/>
<text text-anchor="middle" x="2025.23" y="-447.5" font-family="sans" font-size="10.00">cnv_sv_cnvkit_batch</text>
</g>
<!-- 7&#45;&gt;14 -->
<g id="edge15" class="edge">
<title>7&#45;&gt;14</title>
<path fill="none" stroke="grey" stroke-width="2" d="M994.1,-649.6C997.85,-649.01 1001.58,-648.47 1005.23,-648 1152.01,-629.1 1532.05,-665 1670.23,-612 1741.64,-584.61 1735.51,-537.6 1804.23,-504 1864.16,-474.7 1887.25,-483.55 1955.9,-468.21"/>
<polygon fill="grey" stroke="grey" stroke-width="2" points="1956.96,-471.56 1965.9,-465.88 1955.37,-464.75 1956.96,-471.56"/>
</g>
<!-- 16 -->
<g id="node13" class="node">
<title>16</title>
<path fill="none" stroke="#567bd8" stroke-width="2" d="M1686.73,-540C1686.73,-540 1531.73,-540 1531.73,-540 1525.73,-540 1519.73,-534 1519.73,-528 1519.73,-528 1519.73,-516 1519.73,-516 1519.73,-510 1525.73,-504 1531.73,-504 1531.73,-504 1686.73,-504 1686.73,-504 1692.73,-504 1698.73,-510 1698.73,-516 1698.73,-516 1698.73,-528 1698.73,-528 1698.73,-534 1692.73,-540 1686.73,-540"/>
<text text-anchor="middle" x="1609.23" y="-519.5" font-family="sans" font-size="10.00">cnv_sv_gatk_collect_read_counts</text>
</g>
<!-- 7&#45;&gt;16 -->
<g id="edge18" class="edge">
<title>7&#45;&gt;16</title>
<path fill="none" stroke="grey" stroke-width="2" d="M994.1,-649.63C997.85,-649.03 1001.58,-648.48 1005.23,-648 1071.66,-639.26 1560.73,-660.26 1607.23,-612 1622.59,-596.06 1621.38,-570.09 1617.34,-550.3"/>
<polygon fill="grey" stroke="grey" stroke-width="2" points="1620.69,-549.25 1614.97,-540.33 1613.88,-550.87 1620.69,-549.25"/>
</g>
<!-- 21 -->
<g id="node17" class="node">
<title>21</title>
<path fill="none" stroke="#565bd8" stroke-width="2" d="M1766.23,-468C1766.23,-468 1620.23,-468 1620.23,-468 1614.23,-468 1608.23,-462 1608.23,-456 1608.23,-456 1608.23,-444 1608.23,-444 1608.23,-438 1614.23,-432 1620.23,-432 1620.23,-432 1766.23,-432 1766.23,-432 1772.23,-432 1778.23,-438 1778.23,-444 1778.23,-444 1778.23,-456 1778.23,-456 1778.23,-462 1772.23,-468 1766.23,-468"/>
<text text-anchor="middle" x="1693.23" y="-447.5" font-family="sans" font-size="10.00">gatk_cnv_collect_allelic_counts</text>
</g>
<!-- 7&#45;&gt;21 -->
<g id="edge23" class="edge">
<title>7&#45;&gt;21</title>
<path fill="none" stroke="grey" stroke-width="2" d="M994.1,-649.62C997.85,-649.02 1001.58,-648.48 1005.23,-648 1142.51,-630.06 1499.29,-664.92 1627.23,-612 1671.73,-593.59 1688.49,-583.94 1708.23,-540 1717.11,-520.22 1712.01,-495.82 1705.44,-477.57"/>
<polygon fill="grey" stroke="grey" stroke-width="2" points="1708.65,-476.16 1701.72,-468.14 1702.13,-478.73 1708.65,-476.16"/>
</g>
<!-- 35 -->
<g id="node26" class="node">
<title>35</title>
<path fill="none" stroke="#56d863" stroke-width="2" d="M1015.23,-468C1015.23,-468 931.23,-468 931.23,-468 925.23,-468 919.23,-462 919.23,-456 919.23,-456 919.23,-444 919.23,-444 919.23,-438 925.23,-432 931.23,-432 931.23,-432 1015.23,-432 1015.23,-432 1021.23,-432 1027.23,-438 1027.23,-444 1027.23,-444 1027.23,-456 1027.23,-456 1027.23,-462 1021.23,-468 1015.23,-468"/>
<text text-anchor="middle" x="973.23" y="-447.5" font-family="sans" font-size="10.00">cnv_sv_pindel_call</text>
</g>
<!-- 7&#45;&gt;35 -->
<g id="edge33" class="edge">
<title>7&#45;&gt;35</title>
<path fill="none" stroke="grey" stroke-width="2" d="M994.16,-650.04C997.9,-649.33 1001.61,-648.65 1005.23,-648 1057.01,-638.72 1204.97,-651.93 1239.23,-612 1262.92,-584.38 1218.93,-510.51 1211.23,-504 1152.93,-454.76 1116.41,-483.86 1037.33,-468.02"/>
<polygon fill="grey" stroke="grey" stroke-width="2" points="1037.99,-464.58 1027.47,-465.86 1036.49,-471.42 1037.99,-464.58"/>
</g>
<!-- 36 -->
<g id="node27" class="node">
<title>36</title>
<path fill="none" stroke="#566bd8" stroke-width="2" d="M1190.73,-540C1190.73,-540 1045.73,-540 1045.73,-540 1039.73,-540 1033.73,-534 1033.73,-528 1033.73,-528 1033.73,-516 1033.73,-516 1033.73,-510 1039.73,-504 1045.73,-504 1045.73,-504 1190.73,-504 1190.73,-504 1196.73,-504 1202.73,-510 1202.73,-516 1202.73,-516 1202.73,-528 1202.73,-528 1202.73,-534 1196.73,-540 1190.73,-540"/>
<text text-anchor="middle" x="1118.23" y="-519.5" font-family="sans" font-size="10.00">cnv_sv_pindel_generate_config</text>
</g>
<!-- 7&#45;&gt;36 -->
<g id="edge36" class="edge">
<title>7&#45;&gt;36</title>
<path fill="none" stroke="grey" stroke-width="2" d="M993.73,-650.18C997.61,-649.43 1001.47,-648.7 1005.23,-648 1053.07,-639.12 1189.77,-649.13 1221.23,-612 1231.57,-599.79 1229.56,-589.66 1221.23,-576 1213.02,-562.55 1200.19,-552.37 1186.34,-544.72"/>
<polygon fill="grey" stroke="grey" stroke-width="2" points="1187.63,-541.44 1177.12,-540.04 1184.46,-547.69 1187.63,-541.44"/>
</g>
<!-- 37 -->
<g id="node28" class="node">
<title>37</title>
<path fill="none" stroke="#88d856" stroke-width="2" d="M1200.23,-612C1200.23,-612 1036.23,-612 1036.23,-612 1030.23,-612 1024.23,-606 1024.23,-600 1024.23,-600 1024.23,-588 1024.23,-588 1024.23,-582 1030.23,-576 1036.23,-576 1036.23,-576 1200.23,-576 1200.23,-576 1206.23,-576 1212.23,-582 1212.23,-588 1212.23,-588 1212.23,-600 1212.23,-600 1212.23,-606 1206.23,-612 1200.23,-612"/>
<text text-anchor="middle" x="1118.23" y="-591.5" font-family="sans" font-size="10.00">qc_picard_collect_multiple_metrics</text>
</g>
<!-- 7&#45;&gt;37 -->
<g id="edge37" class="edge">
<title>7&#45;&gt;37</title>
<path fill="none" stroke="grey" stroke-width="2" d="M969.92,-647.97C997.31,-638.19 1031.88,-625.84 1060.76,-615.52"/>
<polygon fill="grey" stroke="grey" stroke-width="2" points="1062.07,-618.77 1070.32,-612.11 1059.72,-612.18 1062.07,-618.77"/>
</g>
<!-- 47 -->
<g id="node32" class="node">
<title>47</title>
<path fill="none" stroke="#d86656" stroke-width="2" d="M385.23,-612C385.23,-612 285.23,-612 285.23,-612 279.23,-612 273.23,-606 273.23,-600 273.23,-600 273.23,-588 273.23,-588 273.23,-582 279.23,-576 285.23,-576 285.23,-576 385.23,-576 385.23,-576 391.23,-576 397.23,-582 397.23,-588 397.23,-588 397.23,-600 397.23,-600 397.23,-606 391.23,-612 385.23,-612"/>
<text text-anchor="middle" x="335.23" y="-591.5" font-family="sans" font-size="10.00">compression_crumble</text>
</g>
<!-- 7&#45;&gt;47 -->
<g id="edge43" class="edge">
<title>7&#45;&gt;47</title>
<path fill="none" stroke="grey" stroke-width="2" d="M850.45,-660.65C752.46,-654.03 571.21,-639.41 407.71,-612.13"/>
<polygon fill="grey" stroke="grey" stroke-width="2" points="407.91,-608.61 397.47,-610.4 406.74,-615.51 407.91,-608.61"/>
</g>
<!-- 62 -->
<g id="node34" class="node">
<title>62</title>
<path fill="none" stroke="#61d856" stroke-width="2" d="M1959.23,-540C1959.23,-540 1825.23,-540 1825.23,-540 1819.23,-540 1813.23,-534 1813.23,-528 1813.23,-528 1813.23,-516 1813.23,-516 1813.23,-510 1819.23,-504 1825.23,-504 1825.23,-504 1959.23,-504 1959.23,-504 1965.23,-504 1971.23,-510 1971.23,-516 1971.23,-516 1971.23,-528 1971.23,-528 1971.23,-534 1965.23,-540 1959.23,-540"/>
<text text-anchor="middle" x="1892.23" y="-519.5" font-family="sans" font-size="10.00">cnv_sv_manta_run_workflow</text>
</g>
<!-- 7&#45;&gt;62 -->
<g id="edge47" class="edge">
<title>7&#45;&gt;62</title>
<path fill="none" stroke="grey" stroke-width="2" d="M994.09,-649.57C997.85,-648.98 1001.58,-648.46 1005.23,-648 1176.08,-626.66 1618.8,-674.55 1779.23,-612 1802.45,-602.95 1802.73,-591.53 1822.23,-576 1834.72,-566.05 1848.72,-555.36 1860.9,-546.21"/>
<polygon fill="grey" stroke="grey" stroke-width="2" points="1863.09,-548.94 1868.99,-540.14 1858.89,-543.34 1863.09,-548.94"/>
</g>
<!-- 63 -->
<g id="node35" class="node">
<title>63</title>
<path fill="none" stroke="#5692d8" stroke-width="2" d="M1941.23,-612C1941.23,-612 1843.23,-612 1843.23,-612 1837.23,-612 1831.23,-606 1831.23,-600 1831.23,-600 1831.23,-588 1831.23,-588 1831.23,-582 1837.23,-576 1843.23,-576 1843.23,-576 1941.23,-576 1941.23,-576 1947.23,-576 1953.23,-582 1953.23,-588 1953.23,-588 1953.23,-600 1953.23,-600 1953.23,-606 1947.23,-612 1941.23,-612"/>
<text text-anchor="middle" x="1892.23" y="-591.5" font-family="sans" font-size="10.00">cnv_sv_manta_config</text>
</g>
<!-- 7&#45;&gt;63 -->
<g id="edge48" class="edge">
<title>7&#45;&gt;63</title>
<path fill="none" stroke="grey" stroke-width="2" d="M994.09,-649.56C997.85,-648.98 1001.58,-648.45 1005.23,-648 1363.73,-603.62 1459.2,-660.12 1817.23,-612 1818.49,-611.83 1819.77,-611.65 1821.05,-611.46"/>
<polygon fill="grey" stroke="grey" stroke-width="2" points="1821.7,-614.9 1830.99,-609.82 1820.56,-607.99 1821.7,-614.9"/>
</g>
<!-- 81 -->
<g id="node43" class="node">
<title>81</title>
<path fill="none" stroke="#d8d356" stroke-width="2" d="M178.73,-540C178.73,-540 95.73,-540 95.73,-540 89.73,-540 83.73,-534 83.73,-528 83.73,-528 83.73,-516 83.73,-516 83.73,-510 89.73,-504 95.73,-504 95.73,-504 178.73,-504 178.73,-504 184.73,-504 190.73,-510 190.73,-516 190.73,-516 190.73,-528 190.73,-528 190.73,-534 184.73,-540 178.73,-540"/>
<text text-anchor="middle" x="137.23" y="-519.5" font-family="sans" font-size="10.00">qc_samtools_stats</text>
</g>
<!-- 7&#45;&gt;81 -->
<g id="edge62" class="edge">
<title>7&#45;&gt;81</title>
<path fill="none" stroke="grey" stroke-width="2" d="M850.55,-664.85C699.32,-663.65 352.58,-656.02 244.23,-612 226.07,-604.62 187.96,-570.86 162.47,-547.11"/>
<polygon fill="grey" stroke="grey" stroke-width="2" points="164.69,-544.39 155.01,-540.1 159.9,-549.5 164.69,-544.39"/>
</g>
<!-- 82 -->
<g id="node44" class="node">
<title>82</title>
<path fill="none" stroke="#56d8a2" stroke-width="2" d="M279.23,-540C279.23,-540 221.23,-540 221.23,-540 215.23,-540 209.23,-534 209.23,-528 209.23,-528 209.23,-516 209.23,-516 209.23,-510 215.23,-504 221.23,-504 221.23,-504 279.23,-504 279.23,-504 285.23,-504 291.23,-510 291.23,-516 291.23,-516 291.23,-528 291.23,-528 291.23,-534 285.23,-540 279.23,-540"/>
<text text-anchor="middle" x="250.23" y="-519.5" font-family="sans" font-size="10.00">qc_mosdepth</text>
</g>
<!-- 7&#45;&gt;82 -->
<g id="edge63" class="edge">
<title>7&#45;&gt;82</title>
<path fill="none" stroke="grey" stroke-width="2" d="M850.61,-664.14C688.96,-661.52 306.51,-651.2 264.23,-612 247.7,-596.68 245.34,-570.4 246.44,-550.36"/>
<polygon fill="grey" stroke="grey" stroke-width="2" points="249.94,-550.53 247.3,-540.26 242.96,-549.93 249.94,-550.53"/>
</g>
<!-- 83 -->
<g id="node45" class="node">
<title>83</title>
<path fill="none" stroke="#d85656" stroke-width="2" d="M663.73,-540C663.73,-540 502.73,-540 502.73,-540 496.73,-540 490.73,-534 490.73,-528 490.73,-528 490.73,-516 490.73,-516 490.73,-510 496.73,-504 502.73,-504 502.73,-504 663.73,-504 663.73,-504 669.73,-504 675.73,-510 675.73,-516 675.73,-516 675.73,-528 675.73,-528 675.73,-534 669.73,-540 663.73,-540"/>
<text text-anchor="middle" x="583.23" y="-519.5" font-family="sans" font-size="10.00">qc_picard_collect_gc_bias_metrics</text>
</g>
<!-- 7&#45;&gt;83 -->
<g id="edge64" class="edge">
<title>7&#45;&gt;83</title>
<path fill="none" stroke="grey" stroke-width="2" d="M850.68,-663.69C763.44,-660.45 623.37,-649.39 589.23,-612 574.26,-595.62 574.17,-569.7 576.99,-550.05"/>
<polygon fill="grey" stroke="grey" stroke-width="2" points="580.44,-550.61 578.72,-540.15 573.55,-549.4 580.44,-550.61"/>
</g>
<!-- 84 -->
<g id="node46" class="node">
<title>84</title>
<path fill="none" stroke="#9fd856" stroke-width="2" d="M840.73,-540C840.73,-540 705.73,-540 705.73,-540 699.73,-540 693.73,-534 693.73,-528 693.73,-528 693.73,-516 693.73,-516 693.73,-510 699.73,-504 705.73,-504 705.73,-504 840.73,-504 840.73,-504 846.73,-504 852.73,-510 852.73,-516 852.73,-516 852.73,-528 852.73,-528 852.73,-534 846.73,-540 840.73,-540"/>
<text text-anchor="middle" x="773.23" y="-519.5" font-family="sans" font-size="10.00">qc_picard_collect_hs_metrics</text>
</g>
<!-- 7&#45;&gt;84 -->
<g id="edge65" class="edge">
<title>7&#45;&gt;84</title>
<path fill="none" stroke="grey" stroke-width="2" d="M850.41,-663.59C765.49,-660.24 631.66,-649.04 600.23,-612 589.87,-599.8 590.71,-588.86 600.23,-576 610.98,-561.45 647.1,-549.26 683.56,-540.26"/>
<polygon fill="grey" stroke="grey" stroke-width="2" points="684.42,-543.65 693.33,-537.92 682.79,-536.84 684.42,-543.65"/>
</g>
<!-- 85 -->
<g id="node47" class="node">
<title>85</title>
<path fill="none" stroke="#568ad8" stroke-width="2" d="M809.23,-612C809.23,-612 621.23,-612 621.23,-612 615.23,-612 609.23,-606 609.23,-600 609.23,-600 609.23,-588 609.23,-588 609.23,-582 615.23,-576 621.23,-576 621.23,-576 809.23,-576 809.23,-576 815.23,-576 821.23,-582 821.23,-588 821.23,-588 821.23,-600 821.23,-600 821.23,-606 815.23,-612 809.23,-612"/>
<text text-anchor="middle" x="715.23" y="-591.5" font-family="sans" font-size="10.00">qc_picard_alignment_summary_metrics</text>
</g>
<!-- 7&#45;&gt;85 -->
<g id="edge66" class="edge">
<title>7&#45;&gt;85</title>
<path fill="none" stroke="grey" stroke-width="2" d="M871.85,-647.97C842.8,-638.14 806.1,-625.73 775.52,-615.39"/>
<polygon fill="grey" stroke="grey" stroke-width="2" points="776.42,-612 765.82,-612.11 774.18,-618.63 776.42,-612"/>
</g>
<!-- 89 -->
<g id="node49" class="node">
<title>89</title>
<path fill="none" stroke="#ced856" stroke-width="2" d="M993.73,-612C993.73,-612 850.73,-612 850.73,-612 844.73,-612 838.73,-606 838.73,-600 838.73,-600 838.73,-588 838.73,-588 838.73,-582 844.73,-576 850.73,-576 850.73,-576 993.73,-576 993.73,-576 999.73,-576 1005.73,-582 1005.73,-588 1005.73,-588 1005.73,-600 1005.73,-600 1005.73,-606 999.73,-612 993.73,-612"/>
<text text-anchor="middle" x="922.23" y="-591.5" font-family="sans" font-size="10.00">qc_picard_collect_wgs_metrics</text>
</g>
<!-- 7&#45;&gt;89 -->
<g id="edge67" class="edge">
<title>7&#45;&gt;89</title>
<path fill="none" stroke="grey" stroke-width="2" d="M922.23,-647.7C922.23,-639.98 922.23,-630.71 922.23,-622.11"/>
<polygon fill="grey" stroke="grey" stroke-width="2" points="925.73,-622.1 922.23,-612.1 918.73,-622.1 925.73,-622.1"/>
</g>
<!-- 90 -->
<g id="node50" class="node">
<title>90</title>
<path fill="none" stroke="#56d882" stroke-width="2" d="M167.23,-612C167.23,-612 27.23,-612 27.23,-612 21.23,-612 15.23,-606 15.23,-600 15.23,-600 15.23,-588 15.23,-588 15.23,-582 21.23,-576 27.23,-576 27.23,-576 167.23,-576 167.23,-576 173.23,-576 179.23,-582 179.23,-588 179.23,-588 179.23,-600 179.23,-600 179.23,-606 173.23,-612 167.23,-612"/>
<text text-anchor="middle" x="97.23" y="-591.5" font-family="sans" font-size="10.00">qc_picard_duplication_metrics</text>
</g>
<!-- 7&#45;&gt;90 -->
<g id="edge68" class="edge">
<title>7&#45;&gt;90</title>
<path fill="none" stroke="grey" stroke-width="2" d="M850.59,-662.23C719.66,-656.64 433.11,-641.88 193.23,-612 191.95,-611.84 190.67,-611.68 189.37,-611.51"/>
<polygon fill="grey" stroke="grey" stroke-width="2" points="189.75,-608.03 179.36,-610.12 188.78,-614.96 189.75,-608.03"/>
</g>
<!-- 130 -->
<g id="node58" class="node">
<title>130</title>
<path fill="none" stroke="#d8a456" stroke-width="2" d="M503.23,-612C503.23,-612 427.23,-612 427.23,-612 421.23,-612 415.23,-606 415.23,-600 415.23,-600 415.23,-588 415.23,-588 415.23,-582 421.23,-576 427.23,-576 427.23,-576 503.23,-576 503.23,-576 509.23,-576 515.23,-582 515.23,-588 515.23,-588 515.23,-600 515.23,-600 515.23,-606 509.23,-612 503.23,-612"/>
<text text-anchor="middle" x="465.23" y="-591.5" font-family="sans" font-size="10.00">dux4_read_count</text>
</g>
<!-- 7&#45;&gt;130 -->
<g id="edge75" class="edge">
<title>7&#45;&gt;130</title>
<path fill="none" stroke="grey" stroke-width="2" d="M850.42,-658.05C771.29,-649.76 640.46,-634.18 529.23,-612 527.96,-611.75 526.68,-611.48 525.39,-611.21"/>
<polygon fill="grey" stroke="grey" stroke-width="2" points="525.92,-607.74 515.39,-608.96 524.38,-614.57 525.92,-607.74"/>
</g>
<!-- 8&#45;&gt;7 -->
<g id="edge13" class="edge">
<title>8&#45;&gt;7</title>
<path fill="none" stroke="grey" stroke-width="2" d="M919.97,-719.7C920.3,-711.98 920.69,-702.71 921.06,-694.11"/>
<polygon fill="grey" stroke="grey" stroke-width="2" points="924.56,-694.25 921.49,-684.1 917.57,-693.95 924.56,-694.25"/>
</g>
<!-- 10 -->
<g id="node9" class="node">
<title>10</title>
<polygon fill="none" stroke="#000000" stroke-width="2" stroke-dasharray="1,5" points="1784.23,-36 1688.23,-36 1688.23,0 1784.23,0 1784.23,-36"/>
<text text-anchor="middle" x="1736.23" y="-15.5" font-family="sans" font-size="10.00">CNV html&#45;report</text>
</g>
<!-- 11 -->
<g id="node10" class="node">
<title>11</title>
<path fill="none" stroke="#56d88a" stroke-width="2" d="M1792.23,-108C1792.23,-108 1680.23,-108 1680.23,-108 1674.23,-108 1668.23,-102 1668.23,-96 1668.23,-96 1668.23,-84 1668.23,-84 1668.23,-78 1674.23,-72 1680.23,-72 1680.23,-72 1792.23,-72 1792.23,-72 1798.23,-72 1804.23,-78 1804.23,-84 1804.23,-84 1804.23,-96 1804.23,-96 1804.23,-102 1798.23,-108 1792.23,-108"/>
<text text-anchor="middle" x="1736.23" y="-87.5" font-family="sans" font-size="10.00">reports_cnv_html_report</text>
</g>
<!-- 11&#45;&gt;10 -->
<g id="edge14" class="edge">
<title>11&#45;&gt;10</title>
<path fill="none" stroke="grey" stroke-width="2" d="M1736.23,-71.7C1736.23,-63.98 1736.23,-54.71 1736.23,-46.11"/>
<polygon fill="grey" stroke="grey" stroke-width="2" points="1739.73,-46.1 1736.23,-36.1 1732.73,-46.1 1739.73,-46.1"/>
</g>
<!-- 29 -->
<g id="node22" class="node">
<title>29</title>
<path fill="none" stroke="#d8bc56" stroke-width="2" d="M1942.73,-396C1942.73,-396 1897.73,-396 1897.73,-396 1891.73,-396 1885.73,-390 1885.73,-384 1885.73,-384 1885.73,-372 1885.73,-372 1885.73,-366 1891.73,-360 1897.73,-360 1897.73,-360 1942.73,-360 1942.73,-360 1948.73,-360 1954.73,-366 1954.73,-372 1954.73,-372 1954.73,-384 1954.73,-384 1954.73,-390 1948.73,-396 1942.73,-396"/>
<text text-anchor="middle" x="1920.23" y="-375.5" font-family="sans" font-size="10.00">cnvkit_call</text>
</g>
<!-- 14&#45;&gt;29 -->
<g id="edge29" class="edge">
<title>14&#45;&gt;29</title>
<path fill="none" stroke="grey" stroke-width="2" d="M1999.54,-431.88C1985.94,-422.81 1969.05,-411.55 1954.36,-401.76"/>
<polygon fill="grey" stroke="grey" stroke-width="2" points="1956.27,-398.82 1946.01,-396.19 1952.39,-404.65 1956.27,-398.82"/>
</g>
<!-- 45 -->
<g id="node30" class="node">
<title>45</title>
<path fill="none" stroke="#5673d8" stroke-width="2" d="M2028.23,-324C2028.23,-324 1966.23,-324 1966.23,-324 1960.23,-324 1954.23,-318 1954.23,-312 1954.23,-312 1954.23,-300 1954.23,-300 1954.23,-294 1960.23,-288 1966.23,-288 1966.23,-288 2028.23,-288 2028.23,-288 2034.23,-288 2040.23,-294 2040.23,-300 2040.23,-300 2040.23,-312 2040.23,-312 2040.23,-318 2034.23,-324 2028.23,-324"/>
<text text-anchor="middle" x="1997.23" y="-303.5" font-family="sans" font-size="10.00">cnvkit_scatter</text>
</g>
<!-- 14&#45;&gt;45 -->
<g id="edge40" class="edge">
<title>14&#45;&gt;45</title>
<path fill="none" stroke="grey" stroke-width="2" d="M2021.85,-431.87C2017.05,-407.56 2008.23,-362.82 2002.55,-334.01"/>
<polygon fill="grey" stroke="grey" stroke-width="2" points="2005.98,-333.32 2000.61,-324.19 1999.12,-334.68 2005.98,-333.32"/>
</g>
<!-- 15 -->
<g id="node12" class="node">
<title>15</title>
<path fill="none" stroke="#56d8a9" stroke-width="2" d="M1484.73,-468C1484.73,-468 1299.73,-468 1299.73,-468 1293.73,-468 1287.73,-462 1287.73,-456 1287.73,-456 1287.73,-444 1287.73,-444 1287.73,-438 1293.73,-432 1299.73,-432 1299.73,-432 1484.73,-432 1484.73,-432 1490.73,-432 1496.73,-438 1496.73,-444 1496.73,-444 1496.73,-456 1496.73,-456 1496.73,-462 1490.73,-468 1484.73,-468"/>
<text text-anchor="middle" x="1392.23" y="-447.5" font-family="sans" font-size="10.00">gatk_cnv_denoise_read_counts_by_sex</text>
</g>
<!-- 20 -->
<g id="node16" class="node">
<title>20</title>
<path fill="none" stroke="#56d863" stroke-width="2" d="M1745.23,-396C1745.23,-396 1641.23,-396 1641.23,-396 1635.23,-396 1629.23,-390 1629.23,-384 1629.23,-384 1629.23,-372 1629.23,-372 1629.23,-366 1635.23,-360 1641.23,-360 1641.23,-360 1745.23,-360 1745.23,-360 1751.23,-360 1757.23,-366 1757.23,-372 1757.23,-372 1757.23,-384 1757.23,-384 1757.23,-390 1751.23,-396 1745.23,-396"/>
<text text-anchor="middle" x="1693.23" y="-375.5" font-family="sans" font-size="10.00">gatk_model_segments</text>
</g>
<!-- 15&#45;&gt;20 -->
<g id="edge22" class="edge">
<title>15&#45;&gt;20</title>
<path fill="none" stroke="grey" stroke-width="2" d="M1465.47,-431.97C1512.18,-421.1 1572.51,-407.07 1619.34,-396.18"/>
<polygon fill="grey" stroke="grey" stroke-width="2" points="1620.17,-399.58 1629.12,-393.91 1618.58,-392.76 1620.17,-399.58"/>
</g>
<!-- 16&#45;&gt;15 -->
<g id="edge16" class="edge">
<title>16&#45;&gt;15</title>
<path fill="none" stroke="grey" stroke-width="2" d="M1556.42,-503.97C1525.84,-494.1 1487.15,-481.62 1455.02,-471.25"/>
<polygon fill="grey" stroke="grey" stroke-width="2" points="1455.86,-467.85 1445.27,-468.11 1453.71,-474.51 1455.86,-467.85"/>
</g>
<!-- 17&#45;&gt;15 -->
<g id="edge17" class="edge">
<title>17&#45;&gt;15</title>
<path fill="none" stroke="grey" stroke-width="2" d="M1367.38,-503.7C1371.14,-495.73 1375.68,-486.1 1379.84,-477.26"/>
<polygon fill="grey" stroke="grey" stroke-width="2" points="1383.06,-478.64 1384.16,-468.1 1376.73,-475.66 1383.06,-478.64"/>
</g>
<!-- multiqc -->
<g id="node42" class="node">
<title>multiqc</title>
<path fill="none" stroke="#56d8d8" stroke-width="2" d="M697.23,-468C697.23,-468 651.23,-468 651.23,-468 645.23,-468 639.23,-462 639.23,-456 639.23,-456 639.23,-444 639.23,-444 639.23,-438 645.23,-432 651.23,-432 651.23,-432 697.23,-432 697.23,-432 703.23,-432 709.23,-438 709.23,-444 709.23,-444 709.23,-456 709.23,-456 709.23,-462 703.23,-468 697.23,-468"/>
<text text-anchor="middle" x="674.23" y="-447.5" font-family="sans" font-size="10.00">qc_multiqc</text>
</g>
<!-- 17&#45;&gt;multiqc -->
<g id="edge52" class="edge">
<title>17&#45;&gt;multiqc</title>
<path fill="none" stroke="grey" stroke-width="2" d="M1327.48,-517.21C1297.53,-513.66 1251.34,-508.28 1211.23,-504 1029.14,-484.56 812.05,-463.91 719.56,-455.23"/>
<polygon fill="grey" stroke="grey" stroke-width="2" points="719.71,-451.73 709.43,-454.28 719.06,-458.7 719.71,-451.73"/>
</g>
<!-- 19 -->
<g id="node15" class="node">
<title>19</title>
<path fill="none" stroke="#d85e56" stroke-width="2" d="M1400.23,-612C1400.23,-612 1318.23,-612 1318.23,-612 1312.23,-612 1306.23,-606 1306.23,-600 1306.23,-600 1306.23,-588 1306.23,-588 1306.23,-582 1312.23,-576 1318.23,-576 1318.23,-576 1400.23,-576 1400.23,-576 1406.23,-576 1412.23,-582 1412.23,-588 1412.23,-588 1412.23,-600 1412.23,-600 1412.23,-606 1406.23,-612 1400.23,-612"/>
<text text-anchor="middle" x="1359.23" y="-591.5" font-family="sans" font-size="10.00">peddy_create_ped</text>
</g>
<!-- 19&#45;&gt;17 -->
<g id="edge20" class="edge">
<title>19&#45;&gt;17</title>
<path fill="none" stroke="grey" stroke-width="2" d="M1359.23,-575.7C1359.23,-567.98 1359.23,-558.71 1359.23,-550.11"/>
<polygon fill="grey" stroke="grey" stroke-width="2" points="1362.73,-550.1 1359.23,-540.1 1355.73,-550.1 1362.73,-550.1"/>
</g>
<!-- 30 -->
<g id="node23" class="node">
<title>30</title>
<path fill="none" stroke="#d89c56" stroke-width="2" d="M1740.73,-324C1740.73,-324 1651.73,-324 1651.73,-324 1645.73,-324 1639.73,-318 1639.73,-312 1639.73,-312 1639.73,-300 1639.73,-300 1639.73,-294 1645.73,-288 1651.73,-288 1651.73,-288 1740.73,-288 1740.73,-288 1746.73,-288 1752.73,-294 1752.73,-300 1752.73,-300 1752.73,-312 1752.73,-312 1752.73,-318 1746.73,-324 1740.73,-324"/>
<text text-anchor="middle" x="1696.23" y="-303.5" font-family="sans" font-size="10.00">cnv_sv_gatk_to_vcf</text>
</g>
<!-- 20&#45;&gt;30 -->
<g id="edge30" class="edge">
<title>20&#45;&gt;30</title>
<path fill="none" stroke="grey" stroke-width="2" d="M1693.97,-359.7C1694.3,-351.98 1694.69,-342.71 1695.06,-334.11"/>
<polygon fill="grey" stroke="grey" stroke-width="2" points="1698.56,-334.25 1695.49,-324.1 1691.57,-333.95 1698.56,-334.25"/>
</g>
<!-- 21&#45;&gt;20 -->
<g id="edge21" class="edge">
<title>21&#45;&gt;20</title>
<path fill="none" stroke="grey" stroke-width="2" d="M1693.23,-431.7C1693.23,-423.98 1693.23,-414.71 1693.23,-406.11"/>
<polygon fill="grey" stroke="grey" stroke-width="2" points="1696.73,-406.1 1693.23,-396.1 1689.73,-406.1 1696.73,-406.1"/>
</g>
<!-- 23&#45;&gt;29 -->
<g id="edge28" class="edge">
<title>23&#45;&gt;29</title>
<path fill="none" stroke="grey" stroke-width="2" d="M1884.09,-431.7C1889.73,-423.47 1896.58,-413.48 1902.79,-404.42"/>
<polygon fill="grey" stroke="grey" stroke-width="2" points="1905.73,-406.33 1908.5,-396.1 1899.95,-402.37 1905.73,-406.33"/>
</g>
<!-- 25 -->
<g id="node19" class="node">
<title>25</title>
<path fill="none" stroke="#56d8b1" stroke-width="2" d="M1794.23,-180C1794.23,-180 1678.23,-180 1678.23,-180 1672.23,-180 1666.23,-174 1666.23,-168 1666.23,-168 1666.23,-156 1666.23,-156 1666.23,-150 1672.23,-144 1678.23,-144 1678.23,-144 1794.23,-144 1794.23,-144 1800.23,-144 1806.23,-150 1806.23,-156 1806.23,-156 1806.23,-168 1806.23,-168 1806.23,-174 1800.23,-180 1794.23,-180"/>
<text text-anchor="middle" x="1736.23" y="-159.5" font-family="sans" font-size="10.00">annotation_annotate_cnv</text>
</g>
<!-- 25&#45;&gt;11 -->
<g id="edge8" class="edge">
<title>25&#45;&gt;11</title>
<path fill="none" stroke="grey" stroke-width="2" d="M1736.23,-143.7C1736.23,-135.98 1736.23,-126.71 1736.23,-118.11"/>
<polygon fill="grey" stroke="grey" stroke-width="2" points="1739.73,-118.1 1736.23,-108.1 1732.73,-118.1 1739.73,-118.1"/>
</g>
<!-- 27 -->
<g id="node20" class="node">
<title>27</title>
<path fill="none" stroke="#b6d856" stroke-width="2" d="M1807.73,-252C1807.73,-252 1664.73,-252 1664.73,-252 1658.73,-252 1652.73,-246 1652.73,-240 1652.73,-240 1652.73,-228 1652.73,-228 1652.73,-222 1658.73,-216 1664.73,-216 1664.73,-216 1807.73,-216 1807.73,-216 1813.73,-216 1819.73,-222 1819.73,-228 1819.73,-228 1819.73,-240 1819.73,-240 1819.73,-246 1813.73,-252 1807.73,-252"/>
<text text-anchor="middle" x="1736.23" y="-231.5" font-family="sans" font-size="10.00">cnv_sv_svdb_merge and query</text>
</g>
<!-- 27&#45;&gt;25 -->
<g id="edge24" class="edge">
<title>27&#45;&gt;25</title>
<path fill="none" stroke="grey" stroke-width="2" d="M1736.23,-215.7C1736.23,-207.98 1736.23,-198.71 1736.23,-190.11"/>
<polygon fill="grey" stroke="grey" stroke-width="2" points="1739.73,-190.1 1736.23,-180.1 1732.73,-190.1 1739.73,-190.1"/>
</g>
<!-- 28 -->
<g id="node21" class="node">
<title>28</title>
<path fill="none" stroke="#61d856" stroke-width="2" d="M1867.23,-324C1867.23,-324 1785.23,-324 1785.23,-324 1779.23,-324 1773.23,-318 1773.23,-312 1773.23,-312 1773.23,-300 1773.23,-300 1773.23,-294 1779.23,-288 1785.23,-288 1785.23,-288 1867.23,-288 1867.23,-288 1873.23,-288 1879.23,-294 1879.23,-300 1879.23,-300 1879.23,-312 1879.23,-312 1879.23,-318 1873.23,-324 1867.23,-324"/>
<text text-anchor="middle" x="1826.23" y="-303.5" font-family="sans" font-size="10.00">cnv_sv_cnvkit_vcf</text>
</g>
<!-- 28&#45;&gt;27 -->
<g id="edge26" class="edge">
<title>28&#45;&gt;27</title>
<path fill="none" stroke="grey" stroke-width="2" d="M1803.98,-287.7C1792.64,-278.88 1778.7,-268.03 1766.41,-258.47"/>
<polygon fill="grey" stroke="grey" stroke-width="2" points="1768.26,-255.48 1758.22,-252.1 1763.96,-261.01 1768.26,-255.48"/>
</g>
<!-- 29&#45;&gt;28 -->
<g id="edge27" class="edge">
<title>29&#45;&gt;28</title>
<path fill="none" stroke="grey" stroke-width="2" d="M1896.99,-359.7C1885.04,-350.8 1870.3,-339.82 1857.38,-330.2"/>
<polygon fill="grey" stroke="grey" stroke-width="2" points="1859.3,-327.27 1849.19,-324.1 1855.12,-332.88 1859.3,-327.27"/>
</g>
<!-- 29&#45;&gt;45 -->
<g id="edge41" class="edge">
<title>29&#45;&gt;45</title>
<path fill="none" stroke="grey" stroke-width="2" d="M1939.26,-359.7C1948.77,-351.05 1960.43,-340.45 1970.8,-331.03"/>
<polygon fill="grey" stroke="grey" stroke-width="2" points="1973.37,-333.42 1978.41,-324.1 1968.66,-328.24 1973.37,-333.42"/>
</g>
<!-- 113 -->
<g id="node56" class="node">
<title>113</title>
<path fill="none" stroke="#afd856" stroke-width="2" d="M1946.73,-252C1946.73,-252 1893.73,-252 1893.73,-252 1887.73,-252 1881.73,-246 1881.73,-240 1881.73,-240 1881.73,-228 1881.73,-228 1881.73,-222 1887.73,-216 1893.73,-216 1893.73,-216 1946.73,-216 1946.73,-216 1952.73,-216 1958.73,-222 1958.73,-228 1958.73,-228 1958.73,-240 1958.73,-240 1958.73,-246 1952.73,-252 1946.73,-252"/>
<text text-anchor="middle" x="1920.23" y="-231.5" font-family="sans" font-size="10.00">cnvkit_table</text>
</g>
<!-- 29&#45;&gt;113 -->
<g id="edge73" class="edge">
<title>29&#45;&gt;113</title>
<path fill="none" stroke="grey" stroke-width="2" d="M1920.23,-359.87C1920.23,-335.67 1920.23,-291.21 1920.23,-262.39"/>
<polygon fill="grey" stroke="grey" stroke-width="2" points="1923.73,-262.19 1920.23,-252.19 1916.73,-262.19 1923.73,-262.19"/>
</g>
<!-- 30&#45;&gt;27 -->
<g id="edge25" class="edge">
<title>30&#45;&gt;27</title>
<path fill="none" stroke="grey" stroke-width="2" d="M1706.11,-287.7C1710.71,-279.64 1716.29,-269.89 1721.38,-260.98"/>
<polygon fill="grey" stroke="grey" stroke-width="2" points="1724.53,-262.52 1726.45,-252.1 1718.45,-259.05 1724.53,-262.52"/>
</g>
<!-- 32 -->
<g id="node24" class="node">
<title>32</title>
<polygon fill="none" stroke="#000000" stroke-width="2" stroke-dasharray="1,5" points="979.73,-324 914.73,-324 914.73,-288 979.73,-288 979.73,-324"/>
<text text-anchor="middle" x="947.23" y="-303.5" font-family="sans" font-size="10.00">pindel vcf</text>
</g>
<!-- 34 -->
<g id="node25" class="node">
<title>34</title>
<path fill="none" stroke="#59d856" stroke-width="2" d="M988.73,-396C988.73,-396 905.73,-396 905.73,-396 899.73,-396 893.73,-390 893.73,-384 893.73,-384 893.73,-372 893.73,-372 893.73,-366 899.73,-360 905.73,-360 905.73,-360 988.73,-360 988.73,-360 994.73,-360 1000.73,-366 1000.73,-372 1000.73,-372 1000.73,-384 1000.73,-384 1000.73,-390 994.73,-396 988.73,-396"/>
<text text-anchor="middle" x="947.23" y="-375.5" font-family="sans" font-size="10.00">cnv_sv_pindel2vcf</text>
</g>
<!-- 34&#45;&gt;32 -->
<g id="edge31" class="edge">
<title>34&#45;&gt;32</title>
<path fill="none" stroke="grey" stroke-width="2" d="M947.23,-359.7C947.23,-351.98 947.23,-342.71 947.23,-334.11"/>
<polygon fill="grey" stroke="grey" stroke-width="2" points="950.73,-334.1 947.23,-324.1 943.73,-334.1 950.73,-334.1"/>
</g>
<!-- 35&#45;&gt;34 -->
<g id="edge32" class="edge">
<title>35&#45;&gt;34</title>
<path fill="none" stroke="grey" stroke-width="2" d="M966.8,-431.7C963.87,-423.81 960.34,-414.3 957.09,-405.55"/>
<polygon fill="grey" stroke="grey" stroke-width="2" points="960.34,-404.26 953.58,-396.1 953.78,-406.7 960.34,-404.26"/>
</g>
<!-- 36&#45;&gt;35 -->
<g id="edge34" class="edge">
<title>36&#45;&gt;35</title>
<path fill="none" stroke="grey" stroke-width="2" d="M1082.75,-503.88C1063.11,-494.39 1038.5,-482.51 1017.59,-472.42"/>
<polygon fill="grey" stroke="grey" stroke-width="2" points="1019.11,-469.26 1008.58,-468.07 1016.06,-475.57 1019.11,-469.26"/>
</g>
<!-- 37&#45;&gt;36 -->
<g id="edge35" class="edge">
<title>37&#45;&gt;36</title>
<path fill="none" stroke="grey" stroke-width="2" d="M1118.23,-575.7C1118.23,-567.98 1118.23,-558.71 1118.23,-550.11"/>
<polygon fill="grey" stroke="grey" stroke-width="2" points="1121.73,-550.1 1118.23,-540.1 1114.73,-550.1 1121.73,-550.1"/>
</g>
<!-- 37&#45;&gt;multiqc -->
<g id="edge55" class="edge">
<title>37&#45;&gt;multiqc</title>
<path fill="none" stroke="grey" stroke-width="2" d="M1082.93,-575.96C1041.42,-556.44 970.07,-524.52 906.23,-504 842.46,-483.5 766.43,-467.71 719.23,-458.89"/>
<polygon fill="grey" stroke="grey" stroke-width="2" points="719.79,-455.43 709.32,-457.06 718.52,-462.32 719.79,-455.43"/>
</g>
<!-- 44 -->
<g id="node29" class="node">
<title>44</title>
<polygon fill="none" stroke="#000000" stroke-width="2" stroke-dasharray="1,5" points="2087.23,-252 1977.23,-252 1977.23,-216 2087.23,-216 2087.23,-252"/>
<text text-anchor="middle" x="2032.23" y="-231.5" font-family="sans" font-size="10.00">cnvkit scatter plots</text>
</g>
<!-- 45&#45;&gt;44 -->
<g id="edge39" class="edge">
<title>45&#45;&gt;44</title>
<path fill="none" stroke="grey" stroke-width="2" d="M2005.88,-287.7C2009.86,-279.73 2014.68,-270.1 2019.09,-261.26"/>
<polygon fill="grey" stroke="grey" stroke-width="2" points="2022.33,-262.61 2023.67,-252.1 2016.07,-259.48 2022.33,-262.61"/>
</g>
<!-- 45&#45;&gt;113 -->
<g id="edge72" class="edge">
<title>45&#45;&gt;113</title>
<path fill="none" stroke="grey" stroke-width="2" d="M1978.19,-287.7C1968.68,-279.05 1957.02,-268.45 1946.66,-259.03"/>
<polygon fill="grey" stroke="grey" stroke-width="2" points="1948.79,-256.24 1939.04,-252.1 1944.09,-261.42 1948.79,-256.24"/>
</g>
<!-- 46 -->
<g id="node31" class="node">
<title>46</title>
<polygon fill="none" stroke="#000000" stroke-width="2" stroke-dasharray="1,5" points="363.23,-540 309.23,-540 309.23,-504 363.23,-504 363.23,-540"/>
<text text-anchor="middle" x="336.23" y="-519.5" font-family="sans" font-size="10.00">.cram</text>
</g>
<!-- 47&#45;&gt;46 -->
<g id="edge42" class="edge">
<title>47&#45;&gt;46</title>
<path fill="none" stroke="grey" stroke-width="2" d="M335.47,-575.7C335.58,-567.98 335.72,-558.71 335.84,-550.11"/>
<polygon fill="grey" stroke="grey" stroke-width="2" points="339.34,-550.15 335.98,-540.1 332.34,-550.05 339.34,-550.15"/>
</g>
<!-- 64 -->
<g id="node36" class="node">
<title>64</title>
<path fill="none" stroke="#d6d856" stroke-width="2" d="M2196.23,-468C2196.23,-468 2114.23,-468 2114.23,-468 2108.23,-468 2102.23,-462 2102.23,-456 2102.23,-456 2102.23,-444 2102.23,-444 2102.23,-438 2108.23,-432 2114.23,-432 2114.23,-432 2196.23,-432 2196.23,-432 2202.23,-432 2208.23,-438 2208.23,-444 2208.23,-444 2208.23,-456 2208.23,-456 2208.23,-462 2202.23,-468 2196.23,-468"/>
<text text-anchor="middle" x="2155.23" y="-447.5" font-family="sans" font-size="10.00">annotation_manta</text>
</g>
<!-- 62&#45;&gt;64 -->
<g id="edge38" class="edge">
<title>62&#45;&gt;64</title>
<path fill="none" stroke="grey" stroke-width="2" d="M1957.44,-503.98C1994.41,-494.29 2041.77,-481.8 2092.32,-468.23"/>
<polygon fill="grey" stroke="grey" stroke-width="2" points="2093.39,-471.57 2102.13,-465.59 2091.57,-464.81 2093.39,-471.57"/>
</g>
<!-- 63&#45;&gt;62 -->
<g id="edge46" class="edge">
<title>63&#45;&gt;62</title>
<path fill="none" stroke="grey" stroke-width="2" d="M1892.23,-575.7C1892.23,-567.98 1892.23,-558.71 1892.23,-550.11"/>
<polygon fill="grey" stroke="grey" stroke-width="2" points="1895.73,-550.1 1892.23,-540.1 1888.73,-550.1 1895.73,-550.1"/>
</g>
<!-- 74 -->
<g id="node38" class="node">
<title>74</title>
<path fill="none" stroke="#d88d56" stroke-width="2" d="M2166.73,-396C2166.73,-396 2107.73,-396 2107.73,-396 2101.73,-396 2095.73,-390 2095.73,-384 2095.73,-384 2095.73,-372 2095.73,-372 2095.73,-366 2101.73,-360 2107.73,-360 2107.73,-360 2166.73,-360 2166.73,-360 2172.73,-360 2178.73,-366 2178.73,-372 2178.73,-372 2178.73,-384 2178.73,-384 2178.73,-390 2172.73,-396 2166.73,-396"/>
<text text-anchor="middle" x="2137.23" y="-375.5" font-family="sans" font-size="10.00">manta_to_tsv</text>
</g>
<!-- 64&#45;&gt;74 -->
<g id="edge50" class="edge">
<title>64&#45;&gt;74</title>
<path fill="none" stroke="grey" stroke-width="2" d="M2150.78,-431.7C2148.77,-423.9 2146.36,-414.51 2144.12,-405.83"/>
<polygon fill="grey" stroke="grey" stroke-width="2" points="2147.5,-404.92 2141.62,-396.1 2140.72,-406.66 2147.5,-404.92"/>
</g>
<!-- 75 -->
<g id="node39" class="node">
<title>75</title>
<polygon fill="none" stroke="#000000" stroke-width="2" stroke-dasharray="1,5" points="2345.23,-396 2197.23,-396 2197.23,-360 2345.23,-360 2345.23,-396"/>
<text text-anchor="middle" x="2271.23" y="-375.5" font-family="sans" font-size="10.00">Manta_T(N).vcf panels/raw</text>
</g>
<!-- 64&#45;&gt;75 -->
<g id="edge9" class="edge">
<title>64&#45;&gt;75</title>
<path fill="none" stroke="grey" stroke-width="2" d="M2183.6,-431.88C2198.77,-422.72 2217.63,-411.34 2233.96,-401.48"/>
<polygon fill="grey" stroke="grey" stroke-width="2" points="2235.99,-404.35 2242.74,-396.19 2232.37,-398.36 2235.99,-404.35"/>
</g>
<!-- 110 -->
<g id="node54" class="node">
<title>110</title>
<polygon fill="none" stroke="#000000" stroke-width="2" stroke-dasharray="1,5" points="1110.73,-324 1015.73,-324 1015.73,-288 1110.73,-288 1110.73,-324"/>
<text text-anchor="middle" x="1063.23" y="-303.5" font-family="sans" font-size="10.00">snv_panels.xlsx</text>
</g>
<!-- 66&#45;&gt;110 -->
<g id="edge49" class="edge">
<title>66&#45;&gt;110</title>
<path fill="none" stroke="grey" stroke-width="2" d="M1063.23,-359.7C1063.23,-351.98 1063.23,-342.71 1063.23,-334.11"/>
<polygon fill="grey" stroke="grey" stroke-width="2" points="1066.73,-334.1 1063.23,-324.1 1059.73,-334.1 1066.73,-334.1"/>
</g>
<!-- 76 -->
<g id="node40" class="node">
<title>76</title>
<polygon fill="none" stroke="#000000" stroke-width="2" stroke-dasharray="1,5" points="2200.73,-324 2073.73,-324 2073.73,-288 2200.73,-288 2200.73,-324"/>
<text text-anchor="middle" x="2137.23" y="-303.5" font-family="sans" font-size="10.00">Manta_T(N).tsv panels</text>
</g>
<!-- 74&#45;&gt;76 -->
<g id="edge44" class="edge">
<title>74&#45;&gt;76</title>
<path fill="none" stroke="grey" stroke-width="2" d="M2137.23,-359.7C2137.23,-351.98 2137.23,-342.71 2137.23,-334.11"/>
<polygon fill="grey" stroke="grey" stroke-width="2" points="2140.73,-334.1 2137.23,-324.1 2133.73,-334.1 2140.73,-334.1"/>
</g>
<!-- 79 -->
<g id="node41" class="node">
<title>79</title>
<polygon fill="none" stroke="#000000" stroke-width="2" stroke-dasharray="1,5" points="726.23,-396 622.23,-396 622.23,-360 726.23,-360 726.23,-396"/>
<text text-anchor="middle" x="674.23" y="-375.5" font-family="sans" font-size="10.00">MultiQC_dna.html</text>
</g>
<!-- multiqc&#45;&gt;79 -->
<g id="edge51" class="edge">
<title>multiqc&#45;&gt;79</title>
<path fill="none" stroke="grey" stroke-width="2" d="M674.23,-431.7C674.23,-423.98 674.23,-414.71 674.23,-406.11"/>
<polygon fill="grey" stroke="grey" stroke-width="2" points="677.73,-406.1 674.23,-396.1 670.73,-406.1 677.73,-406.1"/>
</g>
<!-- 81&#45;&gt;multiqc -->
<g id="edge58" class="edge">
<title>81&#45;&gt;multiqc</title>
<path fill="none" stroke="grey" stroke-width="2" d="M191.06,-505.9C194.15,-505.21 197.22,-504.57 200.23,-504 356.22,-474.41 544.46,-459.41 629.12,-453.75"/>
<polygon fill="grey" stroke="grey" stroke-width="2" points="629.42,-457.24 639.17,-453.09 628.96,-450.25 629.42,-457.24"/>
</g>
<!-- 82&#45;&gt;multiqc -->
<g id="edge57" class="edge">
<title>82&#45;&gt;multiqc</title>
<path fill="none" stroke="grey" stroke-width="2" d="M291.25,-506.37C294.27,-505.51 297.28,-504.7 300.23,-504 416.87,-476.16 557.7,-461.05 628.65,-454.69"/>
<polygon fill="grey" stroke="grey" stroke-width="2" points="629.36,-458.14 639.01,-453.78 628.74,-451.17 629.36,-458.14"/>
</g>
<!-- 83&#45;&gt;multiqc -->
<g id="edge54" class="edge">
<title>83&#45;&gt;multiqc</title>
<path fill="none" stroke="grey" stroke-width="2" d="M605.72,-503.7C617.18,-494.88 631.28,-484.03 643.71,-474.47"/>
<polygon fill="grey" stroke="grey" stroke-width="2" points="646.2,-476.98 651.99,-468.1 641.93,-471.43 646.2,-476.98"/>
</g>
<!-- 84&#45;&gt;multiqc -->
<g id="edge60" class="edge">
<title>84&#45;&gt;multiqc</title>
<path fill="none" stroke="grey" stroke-width="2" d="M749.01,-503.88C736.3,-494.89 720.56,-483.76 706.8,-474.03"/>
<polygon fill="grey" stroke="grey" stroke-width="2" points="708.72,-471.11 698.54,-468.19 704.68,-476.82 708.72,-471.11"/>
</g>
<!-- 85&#45;&gt;multiqc -->
<g id="edge59" class="edge">
<title>85&#45;&gt;multiqc</title>
<path fill="none" stroke="grey" stroke-width="2" d="M813.19,-575.98C832.05,-568.12 849.54,-556.67 861.23,-540 870.41,-526.9 870.87,-516.76 861.23,-504 844.14,-481.4 769,-465.64 719.33,-457.48"/>
<polygon fill="grey" stroke="grey" stroke-width="2" points="719.88,-454.02 709.45,-455.9 718.77,-460.93 719.88,-454.02"/>
</g>
<!-- 88&#45;&gt;multiqc -->
<g id="edge53" class="edge">
<title>88&#45;&gt;multiqc</title>
<path fill="none" stroke="grey" stroke-width="2" d="M362.72,-665.74C278.71,-666.96 52.6,-665.14 6.23,-612 -4.29,-599.94 1.03,-591.13 6.23,-576 19.38,-537.65 26.61,-523.37 62.23,-504 159.86,-450.9 504.18,-449.13 628.79,-450.31"/>
<polygon fill="grey" stroke="grey" stroke-width="2" points="629.08,-453.81 639.11,-450.42 629.15,-446.81 629.08,-453.81"/>
</g>
<!-- 89&#45;&gt;multiqc -->
<g id="edge61" class="edge">
<title>89&#45;&gt;multiqc</title>
<path fill="none" stroke="grey" stroke-width="2" d="M918.56,-575.88C913.34,-555.68 901.78,-522.5 879.23,-504 833.6,-466.59 764.61,-455.25 719.48,-452"/>
<polygon fill="grey" stroke="grey" stroke-width="2" points="719.59,-448.5 709.39,-451.38 719.16,-455.49 719.59,-448.5"/>
</g>
<!-- 90&#45;&gt;multiqc -->
<g id="edge56" class="edge">
<title>90&#45;&gt;multiqc</title>
<path fill="none" stroke="grey" stroke-width="2" d="M84.52,-575.69C71.68,-555.92 56.12,-523.77 74.23,-504 111.48,-463.31 495.05,-453.69 628.64,-451.56"/>
<polygon fill="grey" stroke="grey" stroke-width="2" points="628.99,-455.06 638.94,-451.41 628.88,-448.06 628.99,-455.06"/>
</g>
<!-- 102 -->
<g id="node51" class="node">
<title>102</title>
<polygon fill="none" stroke="#000000" stroke-width="2" stroke-dasharray="1,5" points="1103.73,-684 1014.73,-684 1014.73,-648 1103.73,-648 1103.73,-684"/>
<text text-anchor="middle" x="1059.23" y="-663.5" font-family="sans" font-size="10.00">.spring archive</text>
</g>
<!-- 103&#45;&gt;102 -->
<g id="edge69" class="edge">
<title>103&#45;&gt;102</title>
<path fill="none" stroke="grey" stroke-width="2" d="M1059.23,-719.7C1059.23,-711.98 1059.23,-702.71 1059.23,-694.11"/>
<polygon fill="grey" stroke="grey" stroke-width="2" points="1062.73,-694.1 1059.23,-684.1 1055.73,-694.1 1062.73,-694.1"/>
</g>
<!-- 112 -->
<g id="node55" class="node">
<title>112</title>
<polygon fill="none" stroke="#000000" stroke-width="2" stroke-dasharray="1,5" points="1955.23,-180 1885.23,-180 1885.23,-144 1955.23,-144 1955.23,-180"/>
<text text-anchor="middle" x="1920.23" y="-159.5" font-family="sans" font-size="10.00">cnvkit.xlsx</text>
</g>
<!-- 113&#45;&gt;112 -->
<g id="edge71" class="edge">
<title>113&#45;&gt;112</title>
<path fill="none" stroke="grey" stroke-width="2" d="M1920.23,-215.7C1920.23,-207.98 1920.23,-198.71 1920.23,-190.11"/>
<polygon fill="grey" stroke="grey" stroke-width="2" points="1923.73,-190.1 1920.23,-180.1 1916.73,-190.1 1923.73,-190.1"/>
</g>
<!-- 129 -->
<g id="node57" class="node">
<title>129</title>
<polygon fill="none" stroke="#000000" stroke-width="2" stroke-dasharray="1,5" points="472.73,-540 381.73,-540 381.73,-504 472.73,-504 472.73,-540"/>
<text text-anchor="middle" x="427.23" y="-519.5" font-family="sans" font-size="10.00">dux4_count.tsv</text>
</g>
<!-- 130&#45;&gt;129 -->
<g id="edge74" class="edge">
<title>130&#45;&gt;129</title>
<path fill="none" stroke="grey" stroke-width="2" d="M455.83,-575.7C451.46,-567.64 446.17,-557.89 441.33,-548.98"/>
<polygon fill="grey" stroke="grey" stroke-width="2" points="444.36,-547.22 436.51,-540.1 438.21,-550.56 444.36,-547.22"/>
</g>
</g>
</svg>
