<?xml version="1.0" encoding="UTF-8" standalone="no"?>
<!DOCTYPE svg PUBLIC "-//W3C//DTD SVG 1.1//EN"
 "http://www.w3.org/Graphics/SVG/1.1/DTD/svg11.dtd">
<!-- Generated by graphviz version 2.43.0 (0)
 -->
<!-- Title: snakemake_dag Pages: 1 -->
<svg width="352pt" height="44pt"
 viewBox="0.00 0.00 352.00 44.00" xmlns="http://www.w3.org/2000/svg" xmlns:xlink="http://www.w3.org/1999/xlink">
<g id="graph0" class="graph" transform="scale(1 1) rotate(0) translate(4 40)">
<title>snakemake_dag</title>
<polygon fill="white" stroke="transparent" points="-4,4 -4,-40 348,-40 348,4 -4,4"/>
<!-- 0 -->
<g id="node1" class="node">
<title>0</title>
<polygon fill="none" stroke="#000000" stroke-width="2" stroke-dasharray="1,5" points="54,-36 0,-36 0,0 54,0 54,-36"/>
<text text-anchor="middle" x="27" y="-15.5" font-family="sans" font-size="10.00">fastq</text>
</g>
<!-- 1 -->
<g id="node2" class="node">
<title>1</title>
<path fill="none" stroke="#56c9d8" stroke-width="2" d="M207,-36C207,-36 102,-36 102,-36 96,-36 90,-30 90,-24 90,-24 90,-12 90,-12 90,-6 96,0 102,0 102,0 207,0 207,0 213,0 219,-6 219,-12 219,-12 219,-24 219,-24 219,-30 213,-36 207,-36"/>
<text text-anchor="middle" x="154.5" y="-15.5" font-family="sans" font-size="10.00">prealignment_fastp_pe</text>
</g>
<!-- 0&#45;&gt;1 -->
<g id="edge1" class="edge">
<title>0&#45;&gt;1</title>
<path fill="none" stroke="grey" stroke-width="2" d="M54,-18C61.75,-18 70.66,-18 79.89,-18"/>
<polygon fill="grey" stroke="grey" stroke-width="2" points="79.99,-21.5 89.99,-18 79.99,-14.5 79.99,-21.5"/>
</g>
<!-- 2 -->
<g id="node3" class="node">
<title>2</title>
<polygon fill="none" stroke="#000000" stroke-width="2" stroke-dasharray="1,5" points="344,-36 255,-36 255,0 344,0 344,-36"/>
<text text-anchor="middle" x="299.5" y="-15.5" font-family="sans" font-size="10.00">fastq: trimmed</text>
</g>
<!-- 1&#45;&gt;2 -->
<g id="edge2" class="edge">
<title>1&#45;&gt;2</title>
<path fill="none" stroke="grey" stroke-width="2" d="M219.05,-18C227.65,-18 236.39,-18 244.79,-18"/>
<polygon fill="grey" stroke="grey" stroke-width="2" points="244.82,-21.5 254.82,-18 244.82,-14.5 244.82,-21.5"/>
</g>
</g>
</svg>
