<?xml version="1.0" encoding="UTF-8" standalone="no"?>
<!DOCTYPE svg PUBLIC "-//W3C//DTD SVG 1.1//EN"
 "http://www.w3.org/Graphics/SVG/1.1/DTD/svg11.dtd">
<!-- Generated by graphviz version 2.43.0 (0)
 -->
<!-- Title: snakemake_dag Pages: 1 -->
<svg width="1814pt" height="404pt"
 viewBox="0.00 0.00 1814.00 404.00" xmlns="http://www.w3.org/2000/svg" xmlns:xlink="http://www.w3.org/1999/xlink">
<g id="graph0" class="graph" transform="scale(1 1) rotate(0) translate(4 400)">
<title>snakemake_dag</title>
<polygon fill="white" stroke="transparent" points="-4,4 -4,-400 1810,-400 1810,4 -4,4"/>
<!-- 0 -->
<g id="node1" class="node">
<title>0</title>
<polygon fill="none" stroke="#000000" stroke-width="2" stroke-dasharray="1,5" points="207,-396 121,-396 121,-360 207,-360 207,-396"/>
<text text-anchor="middle" x="164" y="-375.5" font-family="sans" font-size="10.00">raw fastq&#45;files</text>
</g>
<!-- 2 -->
<g id="node3" class="node">
<title>2</title>
<path fill="none" stroke="#70d856" stroke-width="2" d="M102,-324C102,-324 12,-324 12,-324 6,-324 0,-318 0,-312 0,-312 0,-300 0,-300 0,-294 6,-288 12,-288 12,-288 102,-288 102,-288 108,-288 114,-294 114,-300 114,-300 114,-312 114,-312 114,-318 108,-324 102,-324"/>
<text text-anchor="middle" x="57" y="-303.5" font-family="sans" font-size="10.00">compression_spring</text>
</g>
<!-- 0&#45;&gt;2 -->
<g id="edge2" class="edge">
<title>0&#45;&gt;2</title>
<path fill="none" stroke="grey" stroke-width="2" d="M137.82,-359.88C123.96,-350.81 106.76,-339.55 91.79,-329.76"/>
<polygon fill="grey" stroke="grey" stroke-width="2" points="93.56,-326.74 83.28,-324.19 89.73,-332.59 93.56,-326.74"/>
</g>
<!-- 8 -->
<g id="node8" class="node">
<title>8</title>
<path fill="none" stroke="#566bd8" stroke-width="2" d="M607.5,-324C607.5,-324 502.5,-324 502.5,-324 496.5,-324 490.5,-318 490.5,-312 490.5,-312 490.5,-300 490.5,-300 490.5,-294 496.5,-288 502.5,-288 502.5,-288 607.5,-288 607.5,-288 613.5,-288 619.5,-294 619.5,-300 619.5,-300 619.5,-312 619.5,-312 619.5,-318 613.5,-324 607.5,-324"/>
<text text-anchor="middle" x="555" y="-303.5" font-family="sans" font-size="10.00">prealignment_fastp_pe</text>
</g>
<!-- 0&#45;&gt;8 -->
<g id="edge1" class="edge">
<title>0&#45;&gt;8</title>
<path fill="none" stroke="grey" stroke-width="2" d="M207.34,-369.24C273.22,-357.45 399.42,-334.85 480.29,-320.38"/>
<polygon fill="grey" stroke="grey" stroke-width="2" points="481.18,-323.77 490.41,-318.56 479.95,-316.88 481.18,-323.77"/>
</g>
<!-- 13 -->
<g id="node11" class="node">
<title>13</title>
<path fill="none" stroke="#56d8a2" stroke-width="2" d="M183.5,-324C183.5,-324 144.5,-324 144.5,-324 138.5,-324 132.5,-318 132.5,-312 132.5,-312 132.5,-300 132.5,-300 132.5,-294 138.5,-288 144.5,-288 144.5,-288 183.5,-288 183.5,-288 189.5,-288 195.5,-294 195.5,-300 195.5,-300 195.5,-312 195.5,-312 195.5,-318 189.5,-324 183.5,-324"/>
<text text-anchor="middle" x="164" y="-303.5" font-family="sans" font-size="10.00">qc_fastqc</text>
</g>
<!-- 0&#45;&gt;13 -->
<g id="edge3" class="edge">
<title>0&#45;&gt;13</title>
<path fill="none" stroke="grey" stroke-width="2" d="M164,-359.7C164,-351.98 164,-342.71 164,-334.11"/>
<polygon fill="grey" stroke="grey" stroke-width="2" points="167.5,-334.1 164,-324.1 160.5,-334.1 167.5,-334.1"/>
</g>
<!-- 1 -->
<g id="node2" class="node">
<title>1</title>
<polygon fill="none" stroke="#000000" stroke-width="2" stroke-dasharray="1,5" points="84,-252 30,-252 30,-216 84,-216 84,-252"/>
<text text-anchor="middle" x="57" y="-231.5" font-family="sans" font-size="10.00">.spring</text>
</g>
<!-- 2&#45;&gt;1 -->
<g id="edge4" class="edge">
<title>2&#45;&gt;1</title>
<path fill="none" stroke="grey" stroke-width="2" d="M57,-287.7C57,-279.98 57,-270.71 57,-262.11"/>
<polygon fill="grey" stroke="grey" stroke-width="2" points="60.5,-262.1 57,-252.1 53.5,-262.1 60.5,-262.1"/>
</g>
<!-- 3 -->
<g id="node4" class="node">
<title>3</title>
<polygon fill="none" stroke="#000000" stroke-width="2" stroke-dasharray="1,5" points="604,-36 502,-36 502,0 604,0 604,-36"/>
<text text-anchor="middle" x="553" y="-15.5" font-family="sans" font-size="10.00">MultiQC_rna.html</text>
</g>
<!-- multiqc -->
<g id="node5" class="node">
<title>multiqc</title>
<path fill="none" stroke="#5663d8" stroke-width="2" d="M576,-108C576,-108 530,-108 530,-108 524,-108 518,-102 518,-96 518,-96 518,-84 518,-84 518,-78 524,-72 530,-72 530,-72 576,-72 576,-72 582,-72 588,-78 588,-84 588,-84 588,-96 588,-96 588,-102 582,-108 576,-108"/>
<text text-anchor="middle" x="553" y="-87.5" font-family="sans" font-size="10.00">qc_multiqc</text>
</g>
<!-- multiqc&#45;&gt;3 -->
<g id="edge5" class="edge">
<title>multiqc&#45;&gt;3</title>
<path fill="none" stroke="grey" stroke-width="2" d="M553,-71.7C553,-63.98 553,-54.71 553,-46.11"/>
<polygon fill="grey" stroke="grey" stroke-width="2" points="556.5,-46.1 553,-36.1 549.5,-46.1 556.5,-46.1"/>
</g>
<!-- 5 -->
<g id="node6" class="node">
<title>5</title>
<path fill="none" stroke="#97d856" stroke-width="2" d="M739,-180C739,-180 637,-180 637,-180 631,-180 625,-174 625,-168 625,-168 625,-156 625,-156 625,-150 631,-144 637,-144 637,-144 739,-144 739,-144 745,-144 751,-150 751,-156 751,-156 751,-168 751,-168 751,-174 745,-180 739,-180"/>
<text text-anchor="middle" x="688" y="-159.5" font-family="sans" font-size="10.00">qc_mosdepth_bed_rna</text>
</g>
<!-- 5&#45;&gt;multiqc -->
<g id="edge10" class="edge">
<title>5&#45;&gt;multiqc</title>
<path fill="none" stroke="grey" stroke-width="2" d="M654.98,-143.88C636.92,-134.51 614.35,-122.81 595.05,-112.8"/>
<polygon fill="grey" stroke="grey" stroke-width="2" points="596.64,-109.69 586.15,-108.19 593.42,-115.9 596.64,-109.69"/>
</g>
<!-- 6 -->
<g id="node7" class="node">
<title>6</title>
<path fill="none" stroke="#56d8b1" stroke-width="2" d="M812,-252C812,-252 746,-252 746,-252 740,-252 734,-246 734,-240 734,-240 734,-228 734,-228 734,-222 740,-216 746,-216 746,-216 812,-216 812,-216 818,-216 824,-222 824,-228 824,-228 824,-240 824,-240 824,-246 818,-252 812,-252"/>
<text text-anchor="middle" x="779" y="-231.5" font-family="sans" font-size="10.00">alignment_star</text>
</g>
<!-- 6&#45;&gt;multiqc -->
<g id="edge14" class="edge">
<title>6&#45;&gt;multiqc</title>
<path fill="none" stroke="grey" stroke-width="2" d="M780.32,-215.82C780.85,-195.88 778.5,-163.26 760,-144 737.91,-121 652.13,-104.99 598.17,-96.95"/>
<polygon fill="grey" stroke="grey" stroke-width="2" points="598.56,-93.47 588.16,-95.5 597.55,-100.4 598.56,-93.47"/>
</g>
<!-- 6&#45;&gt;5 -->
<g id="edge13" class="edge">
<title>6&#45;&gt;5</title>
<path fill="none" stroke="grey" stroke-width="2" d="M756.51,-215.7C745.04,-206.88 730.94,-196.03 718.52,-186.47"/>
<polygon fill="grey" stroke="grey" stroke-width="2" points="720.3,-183.43 710.24,-180.1 716.03,-188.98 720.3,-183.43"/>
</g>
<!-- 10 -->
<g id="node9" class="node">
<title>10</title>
<path fill="none" stroke="#d85e56" stroke-width="2" d="M931,-180C931,-180 819,-180 819,-180 813,-180 807,-174 807,-168 807,-168 807,-156 807,-156 807,-150 813,-144 819,-144 819,-144 931,-144 931,-144 937,-144 943,-150 943,-156 943,-156 943,-168 943,-168 943,-174 937,-180 931,-180"/>
<text text-anchor="middle" x="875" y="-159.5" font-family="sans" font-size="10.00">qc_rseqc_inner_distance</text>
</g>
<!-- 6&#45;&gt;10 -->
<g id="edge16" class="edge">
<title>6&#45;&gt;10</title>
<path fill="none" stroke="grey" stroke-width="2" d="M802.73,-215.7C814.94,-206.8 829.99,-195.82 843.18,-186.2"/>
<polygon fill="grey" stroke="grey" stroke-width="2" points="845.52,-188.82 851.54,-180.1 841.4,-183.17 845.52,-188.82"/>
</g>
<!-- 12 -->
<g id="node10" class="node">
<title>12</title>
<path fill="none" stroke="#56d0d8" stroke-width="2" d="M1117,-180C1117,-180 973,-180 973,-180 967,-180 961,-174 961,-168 961,-168 961,-156 961,-156 961,-150 967,-144 973,-144 973,-144 1117,-144 1117,-144 1123,-144 1129,-150 1129,-156 1129,-156 1129,-168 1129,-168 1129,-174 1123,-180 1117,-180"/>
<text text-anchor="middle" x="1045" y="-159.5" font-family="sans" font-size="10.00">qc_rseqc_gene_body_coverage</text>
</g>
<!-- 6&#45;&gt;12 -->
<g id="edge17" class="edge">
<title>6&#45;&gt;12</title>
<path fill="none" stroke="grey" stroke-width="2" d="M824.12,-221.13C864.12,-210.6 923.3,-195.03 970.33,-182.65"/>
<polygon fill="grey" stroke="grey" stroke-width="2" points="971.4,-185.99 980.18,-180.06 969.61,-179.22 971.4,-185.99"/>
</g>
<!-- 15 -->
<g id="node13" class="node">
<title>15</title>
<path fill="none" stroke="#d8c356" stroke-width="2" d="M522.5,-180C522.5,-180 313.5,-180 313.5,-180 307.5,-180 301.5,-174 301.5,-168 301.5,-168 301.5,-156 301.5,-156 301.5,-150 307.5,-144 313.5,-144 313.5,-144 522.5,-144 522.5,-144 528.5,-144 534.5,-150 534.5,-156 534.5,-156 534.5,-168 534.5,-168 534.5,-174 528.5,-180 522.5,-180"/>
<text text-anchor="middle" x="418" y="-159.5" font-family="sans" font-size="10.00">qc_picard_alignment_summary_metrics_rna</text>
</g>
<!-- 6&#45;&gt;15 -->
<g id="edge19" class="edge">
<title>6&#45;&gt;15</title>
<path fill="none" stroke="grey" stroke-width="2" d="M733.64,-224.21C679.3,-213.67 586.7,-195.71 515.81,-181.97"/>
<polygon fill="grey" stroke="grey" stroke-width="2" points="516.44,-178.52 505.95,-180.05 515.11,-185.39 516.44,-178.52"/>
</g>
<!-- 17 -->
<g id="node15" class="node">
<title>17</title>
<path fill="none" stroke="#d88d56" stroke-width="2" d="M1259,-180C1259,-180 1197,-180 1197,-180 1191,-180 1185,-174 1185,-168 1185,-168 1185,-156 1185,-156 1185,-150 1191,-144 1197,-144 1197,-144 1259,-144 1259,-144 1265,-144 1271,-150 1271,-156 1271,-156 1271,-168 1271,-168 1271,-174 1265,-180 1259,-180"/>
<text text-anchor="middle" x="1228" y="-159.5" font-family="sans" font-size="10.00">fusions_arriba</text>
</g>
<!-- 6&#45;&gt;17 -->
<g id="edge21" class="edge">
<title>6&#45;&gt;17</title>
<path fill="none" stroke="grey" stroke-width="2" d="M824.07,-229.2C897.39,-222.51 1046.8,-206.75 1171,-180 1172.28,-179.72 1173.57,-179.44 1174.87,-179.13"/>
<polygon fill="grey" stroke="grey" stroke-width="2" points="1176.07,-182.44 1184.92,-176.61 1174.37,-175.65 1176.07,-182.44"/>
</g>
<!-- 18 -->
<g id="node16" class="node">
<title>18</title>
<polygon fill="none" stroke="#000000" stroke-width="2" stroke-dasharray="1,5" points="607,-180 553,-180 553,-144 607,-144 607,-180"/>
<text text-anchor="middle" x="580" y="-159.5" font-family="sans" font-size="10.00">.bam</text>
</g>
<!-- 6&#45;&gt;18 -->
<g id="edge22" class="edge">
<title>6&#45;&gt;18</title>
<path fill="none" stroke="grey" stroke-width="2" d="M733.83,-220C703,-210.74 661.15,-197.44 616.85,-180.12"/>
<polygon fill="grey" stroke="grey" stroke-width="2" points="617.95,-176.79 607.36,-176.36 615.37,-183.3 617.95,-176.79"/>
</g>
<!-- 20 -->
<g id="node18" class="node">
<title>20</title>
<path fill="none" stroke="#a7d856" stroke-width="2" d="M1220,-108C1220,-108 1094,-108 1094,-108 1088,-108 1082,-102 1082,-96 1082,-96 1082,-84 1082,-84 1082,-78 1088,-72 1094,-72 1094,-72 1220,-72 1220,-72 1226,-72 1232,-78 1232,-84 1232,-84 1232,-96 1232,-96 1232,-102 1226,-108 1220,-108"/>
<text text-anchor="middle" x="1157" y="-87.5" font-family="sans" font-size="10.00">fusions_arriba_draw_fusion</text>
</g>
<!-- 6&#45;&gt;20 -->
<g id="edge24" class="edge">
<title>6&#45;&gt;20</title>
<path fill="none" stroke="grey" stroke-width="2" d="M824.13,-232.54C910.25,-230.69 1093.43,-221.81 1138,-180 1154.6,-164.42 1158.54,-138.18 1158.8,-118.22"/>
<polygon fill="grey" stroke="grey" stroke-width="2" points="1162.3,-118.1 1158.64,-108.16 1155.3,-118.22 1162.3,-118.1"/>
</g>
<!-- 8&#45;&gt;multiqc -->
<g id="edge8" class="edge">
<title>8&#45;&gt;multiqc</title>
<path fill="none" stroke="grey" stroke-width="2" d="M490.31,-294.36C427.43,-280.21 335.28,-248.49 292,-180 283.45,-166.47 281.87,-156.39 292,-144 318.73,-111.29 440.27,-98.27 507.66,-93.5"/>
<polygon fill="grey" stroke="grey" stroke-width="2" points="508.25,-96.97 517.99,-92.8 507.78,-89.99 508.25,-96.97"/>
</g>
<!-- 8&#45;&gt;6 -->
<g id="edge15" class="edge">
<title>8&#45;&gt;6</title>
<path fill="none" stroke="grey" stroke-width="2" d="M609.51,-287.97C644.31,-277.09 689.27,-263.04 724.14,-252.14"/>
<polygon fill="grey" stroke="grey" stroke-width="2" points="725.19,-255.48 733.69,-249.16 723.1,-248.8 725.19,-255.48"/>
</g>
<!-- 14 -->
<g id="node12" class="node">
<title>14</title>
<path fill="none" stroke="#ced856" stroke-width="2" d="M291.5,-252C291.5,-252 178.5,-252 178.5,-252 172.5,-252 166.5,-246 166.5,-240 166.5,-240 166.5,-228 166.5,-228 166.5,-222 172.5,-216 178.5,-216 178.5,-216 291.5,-216 291.5,-216 297.5,-216 303.5,-222 303.5,-228 303.5,-228 303.5,-240 303.5,-240 303.5,-246 297.5,-252 291.5,-252"/>
<text text-anchor="middle" x="235" y="-231.5" font-family="sans" font-size="10.00">prealignment_sortmerna</text>
</g>
<!-- 8&#45;&gt;14 -->
<g id="edge18" class="edge">
<title>8&#45;&gt;14</title>
<path fill="none" stroke="grey" stroke-width="2" d="M490.24,-290.83C439.18,-279.66 367.77,-264.04 313.46,-252.16"/>
<polygon fill="grey" stroke="grey" stroke-width="2" points="314.05,-248.71 303.53,-249.99 312.55,-255.55 314.05,-248.71"/>
</g>
<!-- 23 -->
<g id="node21" class="node">
<title>23</title>
<path fill="none" stroke="#d86656" stroke-width="2" d="M1494.5,-252C1494.5,-252 1395.5,-252 1395.5,-252 1389.5,-252 1383.5,-246 1383.5,-240 1383.5,-240 1383.5,-228 1383.5,-228 1383.5,-222 1389.5,-216 1395.5,-216 1395.5,-216 1494.5,-216 1494.5,-216 1500.5,-216 1506.5,-222 1506.5,-228 1506.5,-228 1506.5,-240 1506.5,-240 1506.5,-246 1500.5,-252 1494.5,-252"/>
<text text-anchor="middle" x="1445" y="-231.5" font-family="sans" font-size="10.00">fusions_fusioncatcher</text>
</g>
<!-- 8&#45;&gt;23 -->
<g id="edge28" class="edge">
<title>8&#45;&gt;23</title>
<path fill="none" stroke="grey" stroke-width="2" d="M619.72,-299.91C781.82,-287.16 1204.28,-253.93 1373.44,-240.63"/>
<polygon fill="grey" stroke="grey" stroke-width="2" points="1373.79,-244.11 1383.48,-239.84 1373.24,-237.13 1373.79,-244.11"/>
</g>
<!-- 27 -->
<g id="node24" class="node">
<title>27</title>
<path fill="none" stroke="#d8ac56" stroke-width="2" d="M1147.5,-252C1147.5,-252 1060.5,-252 1060.5,-252 1054.5,-252 1048.5,-246 1048.5,-240 1048.5,-240 1048.5,-228 1048.5,-228 1048.5,-222 1054.5,-216 1060.5,-216 1060.5,-216 1147.5,-216 1147.5,-216 1153.5,-216 1159.5,-222 1159.5,-228 1159.5,-228 1159.5,-240 1159.5,-240 1159.5,-246 1153.5,-252 1147.5,-252"/>
<text text-anchor="middle" x="1104" y="-231.5" font-family="sans" font-size="10.00">fusions_star_fusion</text>
</g>
<!-- 8&#45;&gt;27 -->
<g id="edge31" class="edge">
<title>8&#45;&gt;27</title>
<path fill="none" stroke="grey" stroke-width="2" d="M619.59,-296.76C724.9,-283.34 932.43,-256.88 1038.39,-243.37"/>
<polygon fill="grey" stroke="grey" stroke-width="2" points="1038.84,-246.84 1048.32,-242.1 1037.96,-239.89 1038.84,-246.84"/>
</g>
<!-- 10&#45;&gt;multiqc -->
<g id="edge7" class="edge">
<title>10&#45;&gt;multiqc</title>
<path fill="none" stroke="grey" stroke-width="2" d="M806.71,-146.15C743.93,-132.51 652.61,-112.66 598.37,-100.86"/>
<polygon fill="grey" stroke="grey" stroke-width="2" points="598.88,-97.39 588.36,-98.69 597.39,-104.23 598.88,-97.39"/>
</g>
<!-- 12&#45;&gt;multiqc -->
<g id="edge12" class="edge">
<title>12&#45;&gt;multiqc</title>
<path fill="none" stroke="grey" stroke-width="2" d="M960.88,-145.43C957.89,-144.94 954.92,-144.46 952,-144 824.2,-123.84 672.56,-105.12 598.41,-96.3"/>
<polygon fill="grey" stroke="grey" stroke-width="2" points="598.38,-92.77 588.04,-95.07 597.56,-99.72 598.38,-92.77"/>
</g>
<!-- 13&#45;&gt;multiqc -->
<g id="edge6" class="edge">
<title>13&#45;&gt;multiqc</title>
<path fill="none" stroke="grey" stroke-width="2" d="M157.96,-287.79C152.49,-269.24 146.73,-239.25 157,-216 176.19,-172.54 193.27,-164.76 236,-144 325.37,-100.57 443.81,-91.91 507.62,-90.67"/>
<polygon fill="grey" stroke="grey" stroke-width="2" points="507.8,-94.17 517.75,-90.53 507.71,-87.17 507.8,-94.17"/>
</g>
<!-- 14&#45;&gt;multiqc -->
<g id="edge9" class="edge">
<title>14&#45;&gt;multiqc</title>
<path fill="none" stroke="grey" stroke-width="2" d="M234.52,-215.85C234.95,-195.61 238.96,-162.4 259,-144 294.59,-111.32 434.13,-98.13 507.44,-93.38"/>
<polygon fill="grey" stroke="grey" stroke-width="2" points="507.99,-96.85 517.76,-92.74 507.56,-89.86 507.99,-96.85"/>
</g>
<!-- 15&#45;&gt;multiqc -->
<g id="edge11" class="edge">
<title>15&#45;&gt;multiqc</title>
<path fill="none" stroke="grey" stroke-width="2" d="M451.02,-143.88C469.08,-134.51 491.65,-122.81 510.95,-112.8"/>
<polygon fill="grey" stroke="grey" stroke-width="2" points="512.58,-115.9 519.85,-108.19 509.36,-109.69 512.58,-115.9"/>
</g>
<!-- 16 -->
<g id="node14" class="node">
<title>16</title>
<polygon fill="none" stroke="#000000" stroke-width="2" stroke-dasharray="1,5" points="1316,-108 1250,-108 1250,-72 1316,-72 1316,-108"/>
<text text-anchor="middle" x="1283" y="-87.5" font-family="sans" font-size="10.00">.tsv arriba</text>
</g>
<!-- 17&#45;&gt;16 -->
<g id="edge20" class="edge">
<title>17&#45;&gt;16</title>
<path fill="none" stroke="grey" stroke-width="2" d="M1241.6,-143.7C1248.12,-135.39 1256.07,-125.28 1263.25,-116.14"/>
<polygon fill="grey" stroke="grey" stroke-width="2" points="1266.13,-118.13 1269.56,-108.1 1260.63,-113.81 1266.13,-118.13"/>
</g>
<!-- 17&#45;&gt;20 -->
<g id="edge25" class="edge">
<title>17&#45;&gt;20</title>
<path fill="none" stroke="grey" stroke-width="2" d="M1210.45,-143.7C1201.77,-135.14 1191.14,-124.66 1181.65,-115.3"/>
<polygon fill="grey" stroke="grey" stroke-width="2" points="1183.93,-112.63 1174.35,-108.1 1179.01,-117.62 1183.93,-112.63"/>
</g>
<!-- 19 -->
<g id="node17" class="node">
<title>19</title>
<polygon fill="none" stroke="#000000" stroke-width="2" stroke-dasharray="1,5" points="1190.5,-36 1123.5,-36 1123.5,0 1190.5,0 1190.5,-36"/>
<text text-anchor="middle" x="1157" y="-15.5" font-family="sans" font-size="10.00">.pdf arriba</text>
</g>
<!-- 20&#45;&gt;19 -->
<g id="edge23" class="edge">
<title>20&#45;&gt;19</title>
<path fill="none" stroke="grey" stroke-width="2" d="M1157,-71.7C1157,-63.98 1157,-54.71 1157,-46.11"/>
<polygon fill="grey" stroke="grey" stroke-width="2" points="1160.5,-46.1 1157,-36.1 1153.5,-46.1 1160.5,-46.1"/>
</g>
<!-- 21 -->
<g id="node19" class="node">
<title>21</title>
<polygon fill="none" stroke="#000000" stroke-width="2" stroke-dasharray="1,5" points="1806,-108 1618,-108 1618,-72 1806,-72 1806,-108"/>
<text text-anchor="middle" x="1712" y="-87.5" font-family="sans" font-size="10.00">dux4_igh_filtered.tsv fusioncatcher</text>
</g>
<!-- 22 -->
<g id="node20" class="node">
<title>22</title>
<path fill="none" stroke="#569ad8" stroke-width="2" d="M1667,-180C1667,-180 1527,-180 1527,-180 1521,-180 1515,-174 1515,-168 1515,-168 1515,-156 1515,-156 1515,-150 1521,-144 1527,-144 1527,-144 1667,-144 1667,-144 1673,-144 1679,-150 1679,-156 1679,-156 1679,-168 1679,-168 1679,-174 1673,-180 1667,-180"/>
<text text-anchor="middle" x="1597" y="-159.5" font-family="sans" font-size="10.00">dux4_igh_fusioncatcher_count</text>
</g>
<!-- 22&#45;&gt;21 -->
<g id="edge26" class="edge">
<title>22&#45;&gt;21</title>
<path fill="none" stroke="grey" stroke-width="2" d="M1625.13,-143.88C1640.17,-134.72 1658.87,-123.34 1675.06,-113.48"/>
<polygon fill="grey" stroke="grey" stroke-width="2" points="1677.04,-116.38 1683.76,-108.19 1673.4,-110.4 1677.04,-116.38"/>
</g>
<!-- 24 -->
<g id="node22" class="node">
<title>24</title>
<polygon fill="none" stroke="#000000" stroke-width="2" stroke-dasharray="1,5" points="1600,-108 1420,-108 1420,-72 1600,-72 1600,-108"/>
<text text-anchor="middle" x="1510" y="-87.5" font-family="sans" font-size="10.00">dux4_igh_counts.tsv fusioncather</text>
</g>
<!-- 22&#45;&gt;24 -->
<g id="edge29" class="edge">
<title>22&#45;&gt;24</title>
<path fill="none" stroke="grey" stroke-width="2" d="M1575.49,-143.7C1564.54,-134.88 1551.05,-124.03 1539.18,-114.47"/>
<polygon fill="grey" stroke="grey" stroke-width="2" points="1541.24,-111.65 1531.26,-108.1 1536.86,-117.1 1541.24,-111.65"/>
</g>
<!-- 23&#45;&gt;22 -->
<g id="edge27" class="edge">
<title>23&#45;&gt;22</title>
<path fill="none" stroke="grey" stroke-width="2" d="M1482.18,-215.88C1502.87,-206.35 1528.8,-194.41 1550.78,-184.28"/>
<polygon fill="grey" stroke="grey" stroke-width="2" points="1552.32,-187.43 1559.94,-180.07 1549.39,-181.07 1552.32,-187.43"/>
</g>
<!-- 28 -->
<g id="node25" class="node">
<title>28</title>
<polygon fill="none" stroke="#000000" stroke-width="2" stroke-dasharray="1,5" points="1497,-180 1393,-180 1393,-144 1497,-144 1497,-180"/>
<text text-anchor="middle" x="1445" y="-159.5" font-family="sans" font-size="10.00">.tsv fusioncatcher</text>
</g>
<!-- 23&#45;&gt;28 -->
<g id="edge32" class="edge">
<title>23&#45;&gt;28</title>
<path fill="none" stroke="grey" stroke-width="2" d="M1445,-215.7C1445,-207.98 1445,-198.71 1445,-190.11"/>
<polygon fill="grey" stroke="grey" stroke-width="2" points="1448.5,-190.1 1445,-180.1 1441.5,-190.1 1448.5,-190.1"/>
</g>
<!-- 26 -->
<g id="node23" class="node">
<title>26</title>
<polygon fill="none" stroke="#000000" stroke-width="2" stroke-dasharray="1,5" points="1375,-180 1289,-180 1289,-144 1375,-144 1375,-180"/>
<text text-anchor="middle" x="1332" y="-159.5" font-family="sans" font-size="10.00">.tsv starfusion</text>
</g>
<!-- 27&#45;&gt;26 -->
<g id="edge30" class="edge">
<title>27&#45;&gt;26</title>
<path fill="none" stroke="grey" stroke-width="2" d="M1159.59,-216.62C1191.97,-207 1233.81,-194.42 1279.17,-180.23"/>
<polygon fill="grey" stroke="grey" stroke-width="2" points="1280.4,-183.51 1288.89,-177.18 1278.31,-176.83 1280.4,-183.51"/>
</g>
</g>
</svg>
