<?xml version="1.0" encoding="UTF-8" standalone="no"?>
<!DOCTYPE svg PUBLIC "-//W3C//DTD SVG 1.1//EN"
 "http://www.w3.org/Graphics/SVG/1.1/DTD/svg11.dtd">
<!-- Generated by graphviz version 2.43.0 (0)
 -->
<!-- Title: snakemake_dag Pages: 1 -->
<svg width="1570pt" height="404pt"
 viewBox="0.00 0.00 1570.00 404.00" xmlns="http://www.w3.org/2000/svg" xmlns:xlink="http://www.w3.org/1999/xlink">
<g id="graph0" class="graph" transform="scale(1 1) rotate(0) translate(4 400)">
<title>snakemake_dag</title>
<polygon fill="white" stroke="transparent" points="-4,4 -4,-400 1566,-400 1566,4 -4,4"/>
<!-- 0 -->
<g id="node1" class="node">
<title>0</title>
<polygon fill="none" stroke="#000000" stroke-width="2" stroke-dasharray="1,5" points="207,-396 121,-396 121,-360 207,-360 207,-396"/>
<text text-anchor="middle" x="164" y="-375.5" font-family="sans" font-size="10.00">raw fastq&#45;files</text>
</g>
<!-- 2 -->
<g id="node3" class="node">
<title>2</title>
<path fill="none" stroke="#70d856" stroke-width="2" d="M102,-324C102,-324 12,-324 12,-324 6,-324 0,-318 0,-312 0,-312 0,-300 0,-300 0,-294 6,-288 12,-288 12,-288 102,-288 102,-288 108,-288 114,-294 114,-300 114,-300 114,-312 114,-312 114,-318 108,-324 102,-324"/>
<text text-anchor="middle" x="57" y="-303.5" font-family="sans" font-size="10.00">compression_spring</text>
</g>
<!-- 0&#45;&gt;2 -->
<g id="edge2" class="edge">
<title>0&#45;&gt;2</title>
<path fill="none" stroke="grey" stroke-width="2" d="M137.82,-359.88C123.96,-350.81 106.76,-339.55 91.79,-329.76"/>
<polygon fill="grey" stroke="grey" stroke-width="2" points="93.56,-326.74 83.28,-324.19 89.73,-332.59 93.56,-326.74"/>
</g>
<!-- 8 -->
<g id="node8" class="node">
<title>8</title>
<path fill="none" stroke="#566bd8" stroke-width="2" d="M591.5,-324C591.5,-324 486.5,-324 486.5,-324 480.5,-324 474.5,-318 474.5,-312 474.5,-312 474.5,-300 474.5,-300 474.5,-294 480.5,-288 486.5,-288 486.5,-288 591.5,-288 591.5,-288 597.5,-288 603.5,-294 603.5,-300 603.5,-300 603.5,-312 603.5,-312 603.5,-318 597.5,-324 591.5,-324"/>
<text text-anchor="middle" x="539" y="-303.5" font-family="sans" font-size="10.00">prealignment_fastp_pe</text>
</g>
<!-- 0&#45;&gt;8 -->
<g id="edge1" class="edge">
<title>0&#45;&gt;8</title>
<path fill="none" stroke="grey" stroke-width="2" d="M207.02,-368.97C269.71,-357.27 387.08,-335.36 464.13,-320.98"/>
<polygon fill="grey" stroke="grey" stroke-width="2" points="465.07,-324.36 474.26,-319.09 463.79,-317.48 465.07,-324.36"/>
</g>
<!-- 13 -->
<g id="node11" class="node">
<title>13</title>
<path fill="none" stroke="#56d8a2" stroke-width="2" d="M183.5,-324C183.5,-324 144.5,-324 144.5,-324 138.5,-324 132.5,-318 132.5,-312 132.5,-312 132.5,-300 132.5,-300 132.5,-294 138.5,-288 144.5,-288 144.5,-288 183.5,-288 183.5,-288 189.5,-288 195.5,-294 195.5,-300 195.5,-300 195.5,-312 195.5,-312 195.5,-318 189.5,-324 183.5,-324"/>
<text text-anchor="middle" x="164" y="-303.5" font-family="sans" font-size="10.00">qc_fastqc</text>
</g>
<!-- 0&#45;&gt;13 -->
<g id="edge3" class="edge">
<title>0&#45;&gt;13</title>
<path fill="none" stroke="grey" stroke-width="2" d="M164,-359.7C164,-351.98 164,-342.71 164,-334.11"/>
<polygon fill="grey" stroke="grey" stroke-width="2" points="167.5,-334.1 164,-324.1 160.5,-334.1 167.5,-334.1"/>
</g>
<!-- 1 -->
<g id="node2" class="node">
<title>1</title>
<polygon fill="none" stroke="#000000" stroke-width="2" stroke-dasharray="1,5" points="84,-252 30,-252 30,-216 84,-216 84,-252"/>
<text text-anchor="middle" x="57" y="-231.5" font-family="sans" font-size="10.00">.spring</text>
</g>
<!-- 2&#45;&gt;1 -->
<g id="edge4" class="edge">
<title>2&#45;&gt;1</title>
<path fill="none" stroke="grey" stroke-width="2" d="M57,-287.7C57,-279.98 57,-270.71 57,-262.11"/>
<polygon fill="grey" stroke="grey" stroke-width="2" points="60.5,-262.1 57,-252.1 53.5,-262.1 60.5,-262.1"/>
</g>
<!-- 3 -->
<g id="node4" class="node">
<title>3</title>
<polygon fill="none" stroke="#000000" stroke-width="2" stroke-dasharray="1,5" points="337,-36 235,-36 235,0 337,0 337,-36"/>
<text text-anchor="middle" x="286" y="-15.5" font-family="sans" font-size="10.00">MultiQC_rna.html</text>
</g>
<!-- 4 -->
<g id="node5" class="node">
<title>4</title>
<path fill="none" stroke="#5663d8" stroke-width="2" d="M309,-108C309,-108 263,-108 263,-108 257,-108 251,-102 251,-96 251,-96 251,-84 251,-84 251,-78 257,-72 263,-72 263,-72 309,-72 309,-72 315,-72 321,-78 321,-84 321,-84 321,-96 321,-96 321,-102 315,-108 309,-108"/>
<text text-anchor="middle" x="286" y="-87.5" font-family="sans" font-size="10.00">qc_multiqc</text>
</g>
<!-- 4&#45;&gt;3 -->
<g id="edge5" class="edge">
<title>4&#45;&gt;3</title>
<path fill="none" stroke="grey" stroke-width="2" d="M286,-71.7C286,-63.98 286,-54.71 286,-46.11"/>
<polygon fill="grey" stroke="grey" stroke-width="2" points="289.5,-46.1 286,-36.1 282.5,-46.1 289.5,-46.1"/>
</g>
<!-- 5 -->
<g id="node6" class="node">
<title>5</title>
<path fill="none" stroke="#97d856" stroke-width="2" d="M337,-180C337,-180 235,-180 235,-180 229,-180 223,-174 223,-168 223,-168 223,-156 223,-156 223,-150 229,-144 235,-144 235,-144 337,-144 337,-144 343,-144 349,-150 349,-156 349,-156 349,-168 349,-168 349,-174 343,-180 337,-180"/>
<text text-anchor="middle" x="286" y="-159.5" font-family="sans" font-size="10.00">qc_mosdepth_bed_rna</text>
</g>
<!-- 5&#45;&gt;4 -->
<g id="edge10" class="edge">
<title>5&#45;&gt;4</title>
<path fill="none" stroke="grey" stroke-width="2" d="M286,-143.7C286,-135.98 286,-126.71 286,-118.11"/>
<polygon fill="grey" stroke="grey" stroke-width="2" points="289.5,-118.1 286,-108.1 282.5,-118.1 289.5,-118.1"/>
</g>
<!-- 6 -->
<g id="node7" class="node">
<title>6</title>
<path fill="none" stroke="#56d8b1" stroke-width="2" d="M747,-252C747,-252 681,-252 681,-252 675,-252 669,-246 669,-240 669,-240 669,-228 669,-228 669,-222 675,-216 681,-216 681,-216 747,-216 747,-216 753,-216 759,-222 759,-228 759,-228 759,-240 759,-240 759,-246 753,-252 747,-252"/>
<text text-anchor="middle" x="714" y="-231.5" font-family="sans" font-size="10.00">alignment_star</text>
</g>
<!-- 6&#45;&gt;5 -->
<g id="edge13" class="edge">
<title>6&#45;&gt;5</title>
<path fill="none" stroke="grey" stroke-width="2" d="M668.84,-227.51C602.9,-219.23 476.24,-202.3 359.01,-180.11"/>
<polygon fill="grey" stroke="grey" stroke-width="2" points="359.63,-176.67 349.15,-178.23 358.32,-183.54 359.63,-176.67"/>
</g>
<!-- 10 -->
<g id="node9" class="node">
<title>10</title>
<path fill="none" stroke="#d85e56" stroke-width="2" d="M491,-180C491,-180 379,-180 379,-180 373,-180 367,-174 367,-168 367,-168 367,-156 367,-156 367,-150 373,-144 379,-144 379,-144 491,-144 491,-144 497,-144 503,-150 503,-156 503,-156 503,-168 503,-168 503,-174 497,-180 491,-180"/>
<text text-anchor="middle" x="435" y="-159.5" font-family="sans" font-size="10.00">qc_rseqc_inner_distance</text>
</g>
<!-- 6&#45;&gt;10 -->
<g id="edge15" class="edge">
<title>6&#45;&gt;10</title>
<path fill="none" stroke="grey" stroke-width="2" d="M668.86,-221.68C626.79,-211.12 563.16,-195.15 512.88,-182.54"/>
<polygon fill="grey" stroke="grey" stroke-width="2" points="513.57,-179.1 503.02,-180.06 511.86,-185.89 513.57,-179.1"/>
</g>
<!-- 12 -->
<g id="node10" class="node">
<title>12</title>
<path fill="none" stroke="#56d0d8" stroke-width="2" d="M677,-180C677,-180 533,-180 533,-180 527,-180 521,-174 521,-168 521,-168 521,-156 521,-156 521,-150 527,-144 533,-144 533,-144 677,-144 677,-144 683,-144 689,-150 689,-156 689,-156 689,-168 689,-168 689,-174 683,-180 677,-180"/>
<text text-anchor="middle" x="605" y="-159.5" font-family="sans" font-size="10.00">qc_rseqc_gene_body_coverage</text>
</g>
<!-- 6&#45;&gt;12 -->
<g id="edge16" class="edge">
<title>6&#45;&gt;12</title>
<path fill="none" stroke="grey" stroke-width="2" d="M687.34,-215.88C673.22,-206.81 655.69,-195.55 640.44,-185.76"/>
<polygon fill="grey" stroke="grey" stroke-width="2" points="642.07,-182.65 631.77,-180.19 638.29,-188.54 642.07,-182.65"/>
</g>
<!-- 15 -->
<g id="node13" class="node">
<title>15</title>
<path fill="none" stroke="#d8c356" stroke-width="2" d="M927.5,-180C927.5,-180 718.5,-180 718.5,-180 712.5,-180 706.5,-174 706.5,-168 706.5,-168 706.5,-156 706.5,-156 706.5,-150 712.5,-144 718.5,-144 718.5,-144 927.5,-144 927.5,-144 933.5,-144 939.5,-150 939.5,-156 939.5,-156 939.5,-168 939.5,-168 939.5,-174 933.5,-180 927.5,-180"/>
<text text-anchor="middle" x="823" y="-159.5" font-family="sans" font-size="10.00">qc_picard_alignment_summary_metrics_rna</text>
</g>
<!-- 6&#45;&gt;15 -->
<g id="edge18" class="edge">
<title>6&#45;&gt;15</title>
<path fill="none" stroke="grey" stroke-width="2" d="M740.66,-215.88C754.78,-206.81 772.31,-195.55 787.56,-185.76"/>
<polygon fill="grey" stroke="grey" stroke-width="2" points="789.71,-188.54 796.23,-180.19 785.93,-182.65 789.71,-188.54"/>
</g>
<!-- 17 -->
<g id="node15" class="node">
<title>17</title>
<path fill="none" stroke="#d88d56" stroke-width="2" d="M1032,-180C1032,-180 970,-180 970,-180 964,-180 958,-174 958,-168 958,-168 958,-156 958,-156 958,-150 964,-144 970,-144 970,-144 1032,-144 1032,-144 1038,-144 1044,-150 1044,-156 1044,-156 1044,-168 1044,-168 1044,-174 1038,-180 1032,-180"/>
<text text-anchor="middle" x="1001" y="-159.5" font-family="sans" font-size="10.00">fusions_arriba</text>
</g>
<!-- 6&#45;&gt;17 -->
<g id="edge20" class="edge">
<title>6&#45;&gt;17</title>
<path fill="none" stroke="grey" stroke-width="2" d="M759.15,-224C806.49,-214.28 882.9,-197.78 948,-180 948.1,-179.97 948.2,-179.94 948.31,-179.92"/>
<polygon fill="grey" stroke="grey" stroke-width="2" points="949.35,-183.26 958,-177.14 947.42,-176.53 949.35,-183.26"/>
</g>
<!-- 18 -->
<g id="node16" class="node">
<title>18</title>
<polygon fill="none" stroke="#000000" stroke-width="2" stroke-dasharray="1,5" points="1154,-180 1100,-180 1100,-144 1154,-144 1154,-180"/>
<text text-anchor="middle" x="1127" y="-159.5" font-family="sans" font-size="10.00">.bam</text>
</g>
<!-- 6&#45;&gt;18 -->
<g id="edge21" class="edge">
<title>6&#45;&gt;18</title>
<path fill="none" stroke="grey" stroke-width="2" d="M759.12,-230.24C829.86,-225.1 970.7,-211.57 1086,-180 1087.44,-179.61 1088.9,-179.17 1090.36,-178.71"/>
<polygon fill="grey" stroke="grey" stroke-width="2" points="1091.72,-181.94 1099.99,-175.32 1089.39,-175.34 1091.72,-181.94"/>
</g>
<!-- 20 -->
<g id="node18" class="node">
<title>20</title>
<path fill="none" stroke="#a7d856" stroke-width="2" d="M1130,-108C1130,-108 1004,-108 1004,-108 998,-108 992,-102 992,-96 992,-96 992,-84 992,-84 992,-78 998,-72 1004,-72 1004,-72 1130,-72 1130,-72 1136,-72 1142,-78 1142,-84 1142,-84 1142,-96 1142,-96 1142,-102 1136,-108 1130,-108"/>
<text text-anchor="middle" x="1067" y="-87.5" font-family="sans" font-size="10.00">fusions_arriba_draw_fusion</text>
</g>
<!-- 6&#45;&gt;20 -->
<g id="edge23" class="edge">
<title>6&#45;&gt;20</title>
<path fill="none" stroke="grey" stroke-width="2" d="M759.06,-232.31C841.64,-230.05 1012.49,-220.47 1053,-180 1068.95,-164.07 1071.38,-137.87 1070.45,-118.02"/>
<polygon fill="grey" stroke="grey" stroke-width="2" points="1073.94,-117.73 1069.69,-108.02 1066.96,-118.26 1073.94,-117.73"/>
</g>
<!-- 8&#45;&gt;4 -->
<g id="edge8" class="edge">
<title>8&#45;&gt;4</title>
<path fill="none" stroke="grey" stroke-width="2" d="M474.43,-301.85C395.46,-294.13 264.83,-267.94 204,-180 194.9,-166.84 196.35,-158.05 204,-144 212.26,-128.84 226.92,-117.35 241.59,-109.01"/>
<polygon fill="grey" stroke="grey" stroke-width="2" points="243.46,-111.98 250.67,-104.22 240.19,-105.79 243.46,-111.98"/>
</g>
<!-- 8&#45;&gt;6 -->
<g id="edge14" class="edge">
<title>8&#45;&gt;6</title>
<path fill="none" stroke="grey" stroke-width="2" d="M581.81,-287.88C605.95,-278.22 636.28,-266.09 661.81,-255.88"/>
<polygon fill="grey" stroke="grey" stroke-width="2" points="663.34,-259.03 671.33,-252.07 660.74,-252.53 663.34,-259.03"/>
</g>
<!-- 14 -->
<g id="node12" class="node">
<title>14</title>
<path fill="none" stroke="#ced856" stroke-width="2" d="M529.5,-252C529.5,-252 416.5,-252 416.5,-252 410.5,-252 404.5,-246 404.5,-240 404.5,-240 404.5,-228 404.5,-228 404.5,-222 410.5,-216 416.5,-216 416.5,-216 529.5,-216 529.5,-216 535.5,-216 541.5,-222 541.5,-228 541.5,-228 541.5,-240 541.5,-240 541.5,-246 535.5,-252 529.5,-252"/>
<text text-anchor="middle" x="473" y="-231.5" font-family="sans" font-size="10.00">prealignment_sortmerna</text>
</g>
<!-- 8&#45;&gt;14 -->
<g id="edge17" class="edge">
<title>8&#45;&gt;14</title>
<path fill="none" stroke="grey" stroke-width="2" d="M522.69,-287.7C514.69,-279.22 504.93,-268.86 496.18,-259.58"/>
<polygon fill="grey" stroke="grey" stroke-width="2" points="498.53,-256.98 489.13,-252.1 493.44,-261.78 498.53,-256.98"/>
</g>
<!-- 23 -->
<g id="node21" class="node">
<title>23</title>
<path fill="none" stroke="#d86656" stroke-width="2" d="M1303.5,-252C1303.5,-252 1204.5,-252 1204.5,-252 1198.5,-252 1192.5,-246 1192.5,-240 1192.5,-240 1192.5,-228 1192.5,-228 1192.5,-222 1198.5,-216 1204.5,-216 1204.5,-216 1303.5,-216 1303.5,-216 1309.5,-216 1315.5,-222 1315.5,-228 1315.5,-228 1315.5,-240 1315.5,-240 1315.5,-246 1309.5,-252 1303.5,-252"/>
<text text-anchor="middle" x="1254" y="-231.5" font-family="sans" font-size="10.00">fusions_fusioncatcher</text>
</g>
<!-- 8&#45;&gt;23 -->
<g id="edge27" class="edge">
<title>8&#45;&gt;23</title>
<path fill="none" stroke="grey" stroke-width="2" d="M603.71,-298.66C737.36,-285.58 1042.98,-255.66 1182.35,-242.01"/>
<polygon fill="grey" stroke="grey" stroke-width="2" points="1182.88,-245.48 1192.49,-241.02 1182.2,-238.51 1182.88,-245.48"/>
</g>
<!-- 27 -->
<g id="node24" class="node">
<title>27</title>
<path fill="none" stroke="#d8ac56" stroke-width="2" d="M1497.5,-252C1497.5,-252 1410.5,-252 1410.5,-252 1404.5,-252 1398.5,-246 1398.5,-240 1398.5,-240 1398.5,-228 1398.5,-228 1398.5,-222 1404.5,-216 1410.5,-216 1410.5,-216 1497.5,-216 1497.5,-216 1503.5,-216 1509.5,-222 1509.5,-228 1509.5,-228 1509.5,-240 1509.5,-240 1509.5,-246 1503.5,-252 1497.5,-252"/>
<text text-anchor="middle" x="1454" y="-231.5" font-family="sans" font-size="10.00">fusions_star_fusion</text>
</g>
<!-- 8&#45;&gt;27 -->
<g id="edge30" class="edge">
<title>8&#45;&gt;27</title>
<path fill="none" stroke="grey" stroke-width="2" d="M603.73,-302C738.15,-295.48 1057.24,-278.42 1324,-252 1345.02,-249.92 1367.89,-247.11 1388.5,-244.38"/>
<polygon fill="grey" stroke="grey" stroke-width="2" points="1388.97,-247.85 1398.42,-243.05 1388.04,-240.91 1388.97,-247.85"/>
</g>
<!-- 10&#45;&gt;4 -->
<g id="edge7" class="edge">
<title>10&#45;&gt;4</title>
<path fill="none" stroke="grey" stroke-width="2" d="M398.55,-143.88C377.89,-134.17 351.9,-121.96 330.11,-111.72"/>
<polygon fill="grey" stroke="grey" stroke-width="2" points="331.59,-108.55 321.05,-107.47 328.61,-114.89 331.59,-108.55"/>
</g>
<!-- 12&#45;&gt;4 -->
<g id="edge12" class="edge">
<title>12&#45;&gt;4</title>
<path fill="none" stroke="grey" stroke-width="2" d="M527.37,-143.97C465.95,-130.49 382.3,-112.13 331.33,-100.95"/>
<polygon fill="grey" stroke="grey" stroke-width="2" points="331.8,-97.47 321.28,-98.74 330.3,-104.3 331.8,-97.47"/>
</g>
<!-- 13&#45;&gt;4 -->
<g id="edge6" class="edge">
<title>13&#45;&gt;4</title>
<path fill="none" stroke="grey" stroke-width="2" d="M164.24,-287.79C165.5,-256.35 172.03,-188.76 204,-144 213.62,-130.54 227.82,-119.63 241.72,-111.3"/>
<polygon fill="grey" stroke="grey" stroke-width="2" points="243.77,-114.16 250.76,-106.19 240.33,-108.06 243.77,-114.16"/>
</g>
<!-- 14&#45;&gt;4 -->
<g id="edge9" class="edge">
<title>14&#45;&gt;4</title>
<path fill="none" stroke="grey" stroke-width="2" d="M404.34,-228.54C335.88,-222.5 237.61,-208.94 214,-180 203.88,-167.6 206.78,-158.28 214,-144 220.25,-131.64 230.89,-121.45 242.11,-113.43"/>
<polygon fill="grey" stroke="grey" stroke-width="2" points="244.33,-116.16 250.73,-107.72 240.46,-110.32 244.33,-116.16"/>
</g>
<!-- 15&#45;&gt;4 -->
<g id="edge11" class="edge">
<title>15&#45;&gt;4</title>
<path fill="none" stroke="grey" stroke-width="2" d="M706.23,-145.09C703.46,-144.72 700.71,-144.36 698,-144 564.68,-126.36 406.98,-106.3 331.15,-96.7"/>
<polygon fill="grey" stroke="grey" stroke-width="2" points="331.37,-93.2 321.01,-95.42 330.49,-100.14 331.37,-93.2"/>
</g>
<!-- 16 -->
<g id="node14" class="node">
<title>16</title>
<polygon fill="none" stroke="#000000" stroke-width="2" stroke-dasharray="1,5" points="974,-108 908,-108 908,-72 974,-72 974,-108"/>
<text text-anchor="middle" x="941" y="-87.5" font-family="sans" font-size="10.00">.tsv arriba</text>
</g>
<!-- 17&#45;&gt;16 -->
<g id="edge19" class="edge">
<title>17&#45;&gt;16</title>
<path fill="none" stroke="grey" stroke-width="2" d="M986.17,-143.7C978.98,-135.3 970.2,-125.07 962.31,-115.86"/>
<polygon fill="grey" stroke="grey" stroke-width="2" points="964.83,-113.42 955.66,-108.1 959.51,-117.97 964.83,-113.42"/>
</g>
<!-- 17&#45;&gt;20 -->
<g id="edge24" class="edge">
<title>17&#45;&gt;20</title>
<path fill="none" stroke="grey" stroke-width="2" d="M1017.31,-143.7C1025.31,-135.22 1035.07,-124.86 1043.82,-115.58"/>
<polygon fill="grey" stroke="grey" stroke-width="2" points="1046.56,-117.78 1050.87,-108.1 1041.47,-112.98 1046.56,-117.78"/>
</g>
<!-- 19 -->
<g id="node17" class="node">
<title>19</title>
<polygon fill="none" stroke="#000000" stroke-width="2" stroke-dasharray="1,5" points="1100.5,-36 1033.5,-36 1033.5,0 1100.5,0 1100.5,-36"/>
<text text-anchor="middle" x="1067" y="-15.5" font-family="sans" font-size="10.00">.pdf arriba</text>
</g>
<!-- 20&#45;&gt;19 -->
<g id="edge22" class="edge">
<title>20&#45;&gt;19</title>
<path fill="none" stroke="grey" stroke-width="2" d="M1067,-71.7C1067,-63.98 1067,-54.71 1067,-46.11"/>
<polygon fill="grey" stroke="grey" stroke-width="2" points="1070.5,-46.1 1067,-36.1 1063.5,-46.1 1070.5,-46.1"/>
</g>
<!-- 21 -->
<g id="node19" class="node">
<title>21</title>
<polygon fill="none" stroke="#000000" stroke-width="2" stroke-dasharray="1,5" points="1348,-108 1160,-108 1160,-72 1348,-72 1348,-108"/>
<text text-anchor="middle" x="1254" y="-87.5" font-family="sans" font-size="10.00">dux4_igh_filtered.tsv fusioncatcher</text>
</g>
<!-- 22 -->
<g id="node20" class="node">
<title>22</title>
<path fill="none" stroke="#569ad8" stroke-width="2" d="M1324,-180C1324,-180 1184,-180 1184,-180 1178,-180 1172,-174 1172,-168 1172,-168 1172,-156 1172,-156 1172,-150 1178,-144 1184,-144 1184,-144 1324,-144 1324,-144 1330,-144 1336,-150 1336,-156 1336,-156 1336,-168 1336,-168 1336,-174 1330,-180 1324,-180"/>
<text text-anchor="middle" x="1254" y="-159.5" font-family="sans" font-size="10.00">dux4_igh_fusioncatcher_count</text>
</g>
<!-- 22&#45;&gt;21 -->
<g id="edge25" class="edge">
<title>22&#45;&gt;21</title>
<path fill="none" stroke="grey" stroke-width="2" d="M1254,-143.7C1254,-135.98 1254,-126.71 1254,-118.11"/>
<polygon fill="grey" stroke="grey" stroke-width="2" points="1257.5,-118.1 1254,-108.1 1250.5,-118.1 1257.5,-118.1"/>
</g>
<!-- 24 -->
<g id="node22" class="node">
<title>24</title>
<polygon fill="none" stroke="#000000" stroke-width="2" stroke-dasharray="1,5" points="1546,-108 1366,-108 1366,-72 1546,-72 1546,-108"/>
<text text-anchor="middle" x="1456" y="-87.5" font-family="sans" font-size="10.00">dux4_igh_counts.tsv fusioncather</text>
</g>
<!-- 22&#45;&gt;24 -->
<g id="edge28" class="edge">
<title>22&#45;&gt;24</title>
<path fill="none" stroke="grey" stroke-width="2" d="M1303.16,-143.97C1331.5,-134.14 1367.32,-121.73 1397.16,-111.39"/>
<polygon fill="grey" stroke="grey" stroke-width="2" points="1398.32,-114.69 1406.62,-108.11 1396.03,-108.08 1398.32,-114.69"/>
</g>
<!-- 23&#45;&gt;22 -->
<g id="edge26" class="edge">
<title>23&#45;&gt;22</title>
<path fill="none" stroke="grey" stroke-width="2" d="M1254,-215.7C1254,-207.98 1254,-198.71 1254,-190.11"/>
<polygon fill="grey" stroke="grey" stroke-width="2" points="1257.5,-190.1 1254,-180.1 1250.5,-190.1 1257.5,-190.1"/>
</g>
<!-- 28 -->
<g id="node25" class="node">
<title>28</title>
<polygon fill="none" stroke="#000000" stroke-width="2" stroke-dasharray="1,5" points="1458,-180 1354,-180 1354,-144 1458,-144 1458,-180"/>
<text text-anchor="middle" x="1406" y="-159.5" font-family="sans" font-size="10.00">.tsv fusioncatcher</text>
</g>
<!-- 23&#45;&gt;28 -->
<g id="edge31" class="edge">
<title>23&#45;&gt;28</title>
<path fill="none" stroke="grey" stroke-width="2" d="M1291.18,-215.88C1311.87,-206.35 1337.8,-194.41 1359.78,-184.28"/>
<polygon fill="grey" stroke="grey" stroke-width="2" points="1361.32,-187.43 1368.94,-180.07 1358.39,-181.07 1361.32,-187.43"/>
</g>
<!-- 26 -->
<g id="node23" class="node">
<title>26</title>
<polygon fill="none" stroke="#000000" stroke-width="2" stroke-dasharray="1,5" points="1562,-180 1476,-180 1476,-144 1562,-144 1562,-180"/>
<text text-anchor="middle" x="1519" y="-159.5" font-family="sans" font-size="10.00">.tsv starfusion</text>
</g>
<!-- 27&#45;&gt;26 -->
<g id="edge29" class="edge">
<title>27&#45;&gt;26</title>
<path fill="none" stroke="grey" stroke-width="2" d="M1470.07,-215.7C1477.94,-207.22 1487.56,-196.86 1496.17,-187.58"/>
<polygon fill="grey" stroke="grey" stroke-width="2" points="1498.88,-189.81 1503.12,-180.1 1493.75,-185.05 1498.88,-189.81"/>
</g>
</g>
</svg>
