<?xml version="1.0" encoding="UTF-8" standalone="no"?>
<!DOCTYPE svg PUBLIC "-//W3C//DTD SVG 1.1//EN"
 "http://www.w3.org/Graphics/SVG/1.1/DTD/svg11.dtd">
<!-- Generated by graphviz version 2.43.0 (0)
 -->
<!-- Title: snakemake_dag Pages: 1 -->
<svg width="651pt" height="98pt"
 viewBox="0.00 0.00 651.00 98.00" xmlns="http://www.w3.org/2000/svg" xmlns:xlink="http://www.w3.org/1999/xlink">
<g id="graph0" class="graph" transform="scale(1 1) rotate(0) translate(4 94)">
<title>snakemake_dag</title>
<polygon fill="white" stroke="transparent" points="-4,4 -4,-94 647,-94 647,4 -4,4"/>
<!-- 0 -->
<g id="node1" class="node">
<title>0</title>
<polygon fill="none" stroke="#000000" stroke-width="2" stroke-dasharray="1,5" points="54,-63 0,-63 0,-27 54,-27 54,-63"/>
<text text-anchor="middle" x="27" y="-42.5" font-family="sans" font-size="10.00">fastq</text>
</g>
<!-- 1 -->
<g id="node2" class="node">
<title>1</title>
<path fill="none" stroke="#56c9d8" stroke-width="2" d="M207,-63C207,-63 102,-63 102,-63 96,-63 90,-57 90,-51 90,-51 90,-39 90,-39 90,-33 96,-27 102,-27 102,-27 207,-27 207,-27 213,-27 219,-33 219,-39 219,-39 219,-51 219,-51 219,-57 213,-63 207,-63"/>
<text text-anchor="middle" x="154.5" y="-42.5" font-family="sans" font-size="10.00">prealignment_fastp_pe</text>
</g>
<!-- 0&#45;&gt;1 -->
<g id="edge1" class="edge">
<title>0&#45;&gt;1</title>
<path fill="none" stroke="grey" stroke-width="2" d="M54,-45C61.75,-45 70.66,-45 79.89,-45"/>
<polygon fill="grey" stroke="grey" stroke-width="2" points="79.99,-48.5 89.99,-45 79.99,-41.5 79.99,-48.5"/>
</g>
<!-- 2 -->
<g id="node3" class="node">
<title>2</title>
<path fill="none" stroke="#70d856" stroke-width="2" d="M368,-63C368,-63 267,-63 267,-63 261,-63 255,-57 255,-51 255,-51 255,-39 255,-39 255,-33 261,-27 267,-27 267,-27 368,-27 368,-27 374,-27 380,-33 380,-39 380,-39 380,-51 380,-51 380,-57 374,-63 368,-63"/>
<text text-anchor="middle" x="317.5" y="-42.5" font-family="sans" font-size="10.00">prealignment_merged</text>
</g>
<!-- 1&#45;&gt;2 -->
<g id="edge2" class="edge">
<title>1&#45;&gt;2</title>
<path fill="none" stroke="grey" stroke-width="2" d="M219.13,-45C227.5,-45 236.13,-45 244.63,-45"/>
<polygon fill="grey" stroke="grey" stroke-width="2" points="244.91,-48.5 254.91,-45 244.91,-41.5 244.91,-48.5"/>
</g>
<!-- 3 -->
<g id="node4" class="node">
<title>3</title>
<path fill="none" stroke="#5663d8" stroke-width="2" d="M541,-90C541,-90 428,-90 428,-90 422,-90 416,-84 416,-78 416,-78 416,-66 416,-66 416,-60 422,-54 428,-54 428,-54 541,-54 541,-54 547,-54 553,-60 553,-66 553,-66 553,-78 553,-78 553,-84 547,-90 541,-90"/>
<text text-anchor="middle" x="484.5" y="-69.5" font-family="sans" font-size="10.00">prealignment_sortmerna</text>
</g>
<!-- 2&#45;&gt;3 -->
<g id="edge3" class="edge">
<title>2&#45;&gt;3</title>
<path fill="none" stroke="grey" stroke-width="2" d="M380.41,-55.13C388.76,-56.5 397.4,-57.91 405.98,-59.31"/>
<polygon fill="grey" stroke="grey" stroke-width="2" points="405.56,-62.79 415.99,-60.95 406.69,-55.88 405.56,-62.79"/>
</g>
<!-- 4 -->
<g id="node5" class="node">
<title>4</title>
<polygon fill="none" stroke="#000000" stroke-width="2" stroke-dasharray="1,5" points="529,-36 440,-36 440,0 529,0 529,-36"/>
<text text-anchor="middle" x="484.5" y="-15.5" font-family="sans" font-size="10.00">fastq: trimmed</text>
</g>
<!-- 2&#45;&gt;4 -->
<g id="edge4" class="edge">
<title>2&#45;&gt;4</title>
<path fill="none" stroke="grey" stroke-width="2" d="M380.41,-34.87C396.61,-32.22 413.95,-29.38 429.69,-26.81"/>
<polygon fill="grey" stroke="grey" stroke-width="2" points="430.47,-30.22 439.78,-25.15 429.34,-23.32 430.47,-30.22"/>
</g>
<!-- 5 -->
<g id="node6" class="node">
<title>5</title>
<polygon fill="none" stroke="#000000" stroke-width="2" stroke-dasharray="1,5" points="643,-90 589,-90 589,-54 643,-54 643,-90"/>
<text text-anchor="middle" x="616" y="-69.5" font-family="sans" font-size="10.00">rrna.log</text>
</g>
<!-- 3&#45;&gt;5 -->
<g id="edge5" class="edge">
<title>3&#45;&gt;5</title>
<path fill="none" stroke="grey" stroke-width="2" d="M553.28,-72C562.05,-72 570.74,-72 578.71,-72"/>
<polygon fill="grey" stroke="grey" stroke-width="2" points="578.73,-75.5 588.73,-72 578.73,-68.5 578.73,-75.5"/>
</g>
</g>
</svg>
